<?xml version="1.0" encoding="UTF-8"?>
<!DOCTYPE svg PUBLIC "-//W3C//DTD SVG 1.1//EN" "http://www.w3.org/Graphics/SVG/1.1/DTD/svg11.dtd">
<!-- Creator: CorelDRAW -->
<svg xmlns="http://www.w3.org/2000/svg" xml:space="preserve" width="17.3698mm" height="17.3698mm" version="1.1" style="shape-rendering:geometricPrecision; text-rendering:geometricPrecision; image-rendering:optimizeQuality; fill-rule:evenodd; clip-rule:evenodd"
viewBox="0 0 120.6 120.6"
 xmlns:xlink="http://www.w3.org/1999/xlink"
 xmlns:xodm="http://www.corel.com/coreldraw/odm/2003">
 <defs>
  <style type="text/css">
   <![CDATA[
    .fil0 {fill:#0062FF}
   ]]>
  </style>
 </defs>
 <g id="Layer_x0020_1">
  <metadata id="CorelCorpID_0Corel-Layer"/>
  <path class="fil0" d="M11.92 51.56c-2.13,-2.16 -4.18,-4.25 -5.72,-5.78 -5.16,-5.16 -5.38,-11.51 -5.53,-15.24 -0.15,-3.74 -1.73,-26.77 0.57,-29.29 2.52,-2.31 25.55,-0.72 29.29,-0.57 3.74,0.15 10.09,0.37 15.24,5.53 1.54,1.54 3.62,3.59 5.78,5.72l-39.64 39.64zm48.38 -31.08c3.44,-3.36 10.68,-10.43 14.52,-14.27 5.16,-5.16 11.51,-5.38 15.24,-5.53 3.74,-0.15 26.77,-1.73 29.29,0.57 2.31,2.52 0.72,25.55 0.57,29.29 -0.15,3.74 -0.37,10.09 -5.53,15.24 -27.91,27.91 -47.44,47.44 -68.63,68.63 -5.16,5.16 -11.51,5.38 -15.24,5.53 -3.74,0.15 -26.77,1.73 -29.29,-0.57 -2.31,-2.52 -0.72,-25.55 -0.57,-29.29 0.15,-3.74 0.37,-10.09 5.53,-15.24 3.84,-3.84 10.92,-11.08 14.27,-14.52l39.83 -39.83zm48.38 48.57c2.13,2.16 4.18,4.25 5.72,5.78 5.16,5.16 5.38,11.51 5.53,15.24 0.15,3.74 1.73,26.77 -0.57,29.29 -2.52,2.31 -25.55,0.72 -29.29,0.57 -3.74,-0.15 -10.09,-0.37 -15.24,-5.53 -1.54,-1.54 -3.62,-3.59 -5.78,-5.72l39.64 -39.64z"/>
 </g>
</svg>
