<?xml version="1.0" encoding="UTF-8"?>
<!DOCTYPE svg PUBLIC "-//W3C//DTD SVG 1.1//EN" "http://www.w3.org/Graphics/SVG/1.1/DTD/svg11.dtd">
<!-- Creator: CorelDRAW -->
<svg xmlns="http://www.w3.org/2000/svg" xml:space="preserve" width="0.690319in" height="0.690319in" version="1.1" style="shape-rendering:geometricPrecision; text-rendering:geometricPrecision; image-rendering:optimizeQuality; fill-rule:evenodd; clip-rule:evenodd"
viewBox="0 0 47 47"
 xmlns:xlink="http://www.w3.org/1999/xlink"
 xmlns:xodm="http://www.corel.com/coreldraw/odm/2003">
 <defs>
  <style type="text/css">
   <![CDATA[
    .fil0 {fill:#151515}
   ]]>
  </style>
 </defs>
 <g id="Layer_x0020_1">
  <metadata id="CorelCorpID_0Corel-Layer"/>
  <path class="fil0" d="M5.65 21.12c-1.16,-1.18 -2.4,-2.44 -3.24,-3.28 -2.01,-2.01 -2.1,-4.48 -2.16,-5.94 -0.06,-1.46 -0.68,-10.43 0.22,-11.41 0.98,-0.9 9.96,-0.28 11.41,-0.22 1.46,0.06 3.93,0.15 5.94,2.16 0.84,0.84 2.1,2.08 3.28,3.24l-15.47 15.47zm17.85 -13.14c1.34,-1.31 4.16,-4.07 5.66,-5.56 2.01,-2.01 4.48,-2.1 5.94,-2.16 1.46,-0.06 10.43,-0.68 11.41,0.22 0.9,0.98 0.28,9.96 0.22,11.41 -0.06,1.46 -0.15,3.93 -2.16,5.94 -1.5,1.5 -4.25,4.32 -5.56,5.66l-15.52 15.52c-1.34,1.31 -4.16,4.07 -5.66,5.56 -2.01,2.01 -4.48,2.1 -5.94,2.16 -1.46,0.06 -10.43,0.68 -11.41,-0.22 -0.9,-0.98 -0.28,-9.96 -0.22,-11.41 0.06,-1.46 0.15,-3.93 2.16,-5.94 1.5,-1.5 4.25,-4.32 5.56,-5.66l15.52 -15.52zm17.85 17.9c1.16,1.18 2.4,2.44 3.24,3.28 2.01,2.01 2.1,4.48 2.16,5.94 0.06,1.46 0.68,10.43 -0.22,11.41 -0.98,0.9 -9.96,0.28 -11.41,0.22 -1.46,-0.06 -3.93,-0.15 -5.94,-2.16 -0.84,-0.84 -2.1,-2.08 -3.28,-3.24l15.47 -15.47z"/>
 </g>
</svg>
