<?xml version="1.0" encoding="UTF-8"?>
<!DOCTYPE svg PUBLIC "-//W3C//DTD SVG 1.1//EN" "http://www.w3.org/Graphics/SVG/1.1/DTD/svg11.dtd">
<!-- Creator: CorelDRAW -->
<svg xmlns="http://www.w3.org/2000/svg" xml:space="preserve" width="17.3698mm" height="17.3698mm" version="1.1" style="shape-rendering:geometricPrecision; text-rendering:geometricPrecision; image-rendering:optimizeQuality; fill-rule:evenodd; clip-rule:evenodd"
viewBox="0 0 88.74 88.74"
 xmlns:xlink="http://www.w3.org/1999/xlink"
 xmlns:xodm="http://www.corel.com/coreldraw/odm/2003">
 <defs>
  <style type="text/css">
   <![CDATA[
    .fil0 {fill:#0062FF}
   ]]>
  </style>
 </defs>
 <g id="Layer_x0020_1">
  <metadata id="CorelCorpID_0Corel-Layer"/>
  <path class="fil0" d="M8.77 37.94c-1.57,-1.59 -3.08,-3.12 -4.21,-4.25 -3.79,-3.79 -3.96,-8.47 -4.07,-11.22 -0.11,-2.75 -1.28,-19.7 0.42,-21.55 1.85,-1.7 18.8,-0.53 21.55,-0.42 2.75,0.11 7.42,0.27 11.22,4.07 1.13,1.13 2.66,2.64 4.25,4.21l-29.17 29.17zm35.6 -22.87c2.53,-2.47 7.86,-7.68 10.69,-10.5 3.79,-3.79 8.47,-3.96 11.22,-4.07 2.75,-0.11 19.7,-1.28 21.55,0.42 1.7,1.85 0.53,18.8 0.42,21.55 -0.11,2.75 -0.27,7.42 -4.07,11.22 -20.54,20.54 -34.91,34.91 -50.5,50.5 -3.79,3.79 -8.47,3.96 -11.22,4.07 -2.75,0.11 -19.7,1.28 -21.55,-0.42 -1.7,-1.85 -0.53,-18.8 -0.42,-21.55 0.11,-2.75 0.27,-7.42 4.07,-11.22 2.83,-2.83 8.03,-8.15 10.5,-10.69l29.31 -29.31zm35.6 35.74c1.56,1.59 3.08,3.12 4.21,4.25 3.79,3.79 3.96,8.47 4.07,11.22 0.11,2.75 1.28,19.7 -0.42,21.55 -1.85,1.7 -18.8,0.53 -21.55,0.42 -2.75,-0.11 -7.42,-0.27 -11.22,-4.07 -1.13,-1.13 -2.66,-2.64 -4.25,-4.21l29.17 -29.17z"/>
 </g>
</svg>
