<?xml version="1.0" encoding="UTF-8"?>
<!DOCTYPE svg PUBLIC "-//W3C//DTD SVG 1.1//EN" "http://www.w3.org/Graphics/SVG/1.1/DTD/svg11.dtd">
<!-- Creator: CorelDRAW -->
<svg xmlns="http://www.w3.org/2000/svg" xml:space="preserve" width="0.68385in" height="0.68385in" version="1.1" style="shape-rendering:geometricPrecision; text-rendering:geometricPrecision; image-rendering:optimizeQuality; fill-rule:evenodd; clip-rule:evenodd"
viewBox="0 0 57.59 57.59"
 xmlns:xlink="http://www.w3.org/1999/xlink"
 xmlns:xodm="http://www.corel.com/coreldraw/odm/2003">
 <defs>
  <style type="text/css">
   <![CDATA[
    .fil0 {fill:#151515}
   ]]>
  </style>
 </defs>
 <g id="Layer_x0020_1">
  <metadata id="CorelCorpID_0Corel-Layer"/>
  <path class="fil0" d="M5.69 24.62c-1.02,-1.03 -2,-2.03 -2.73,-2.76 -2.46,-2.46 -2.57,-5.49 -2.64,-7.28 -0.07,-1.78 -0.83,-12.78 0.27,-13.99 1.2,-1.1 12.2,-0.35 13.99,-0.27 1.78,0.07 4.82,0.18 7.28,2.64 0.73,0.73 1.73,1.71 2.76,2.73l-18.93 18.93zm23.11 -14.84c1.64,-1.6 5.1,-4.98 6.94,-6.82 2.46,-2.46 5.49,-2.57 7.28,-2.64 1.78,-0.07 12.78,-0.83 13.99,0.27 1.1,1.2 0.35,12.2 0.27,13.99 -0.07,1.78 -0.18,4.82 -2.64,7.28 -13.33,13.33 -22.65,22.65 -32.77,32.77 -2.46,2.46 -5.49,2.57 -7.28,2.64 -1.78,0.07 -12.78,0.83 -13.99,-0.27 -1.1,-1.2 -0.35,-12.2 -0.27,-13.99 0.07,-1.78 0.18,-4.82 2.64,-7.28 1.83,-1.83 5.21,-5.29 6.82,-6.94l19.02 -19.02zm23.11 23.19c1.02,1.03 2,2.03 2.73,2.76 2.46,2.46 2.57,5.5 2.64,7.28 0.07,1.78 0.83,12.78 -0.27,13.99 -1.2,1.1 -12.2,0.35 -13.99,0.27 -1.78,-0.07 -4.82,-0.18 -7.28,-2.64 -0.73,-0.73 -1.73,-1.71 -2.76,-2.73l18.93 -18.93z"/>
 </g>
</svg>
