<?xml version="1.0" encoding="UTF-8"?>
<!DOCTYPE svg PUBLIC "-//W3C//DTD SVG 1.1//EN" "http://www.w3.org/Graphics/SVG/1.1/DTD/svg11.dtd">
<!-- Creator: CorelDRAW -->
<svg xmlns="http://www.w3.org/2000/svg" xml:space="preserve" width="0.68385in" height="0.68385in" version="1.1" style="shape-rendering:geometricPrecision; text-rendering:geometricPrecision; image-rendering:optimizeQuality; fill-rule:evenodd; clip-rule:evenodd"
viewBox="0 0 75.6 75.6"
 xmlns:xlink="http://www.w3.org/1999/xlink"
 xmlns:xodm="http://www.corel.com/coreldraw/odm/2003">
 <defs>
  <style type="text/css">
   <![CDATA[
    .fil0 {fill:#FAFAFC}
   ]]>
  </style>
 </defs>
 <g id="Layer_x0020_1">
  <metadata id="CorelCorpID_0Corel-Layer"/>
  <path class="fil0" d="M7.47 32.32c-1.33,-1.36 -2.62,-2.66 -3.58,-3.62 -3.23,-3.23 -3.37,-7.21 -3.47,-9.55 -0.09,-2.34 -1.09,-16.78 0.36,-18.36 1.58,-1.45 16.02,-0.45 18.36,-0.36 2.34,0.09 6.32,0.23 9.55,3.47 0.96,0.96 2.27,2.25 3.62,3.58l-24.85 24.85zm30.33 -19.48c2.16,-2.11 6.7,-6.54 9.1,-8.95 3.23,-3.23 7.21,-3.37 9.55,-3.47 2.34,-0.09 16.78,-1.09 18.36,0.36 1.45,1.58 0.45,16.02 0.36,18.36 -0.09,2.34 -0.23,6.32 -3.47,9.55 -17.5,17.5 -29.74,29.74 -43.02,43.02 -3.23,3.23 -7.21,3.37 -9.55,3.47 -2.34,0.09 -16.78,1.09 -18.36,-0.36 -1.45,-1.58 -0.45,-16.02 -0.36,-18.36 0.09,-2.34 0.23,-6.32 3.47,-9.55 2.41,-2.41 6.84,-6.95 8.95,-9.1l24.96 -24.96zm30.33 30.45c1.33,1.36 2.62,2.66 3.58,3.62 3.23,3.23 3.37,7.21 3.47,9.55 0.09,2.34 1.09,16.78 -0.36,18.36 -1.58,1.45 -16.02,0.45 -18.36,0.36 -2.34,-0.09 -6.32,-0.23 -9.55,-3.47 -0.96,-0.96 -2.27,-2.25 -3.62,-3.58l24.85 -24.85z"/>
 </g>
</svg>
