<?xml version="1.0" encoding="UTF-8"?>
<!DOCTYPE svg PUBLIC "-//W3C//DTD SVG 1.1//EN" "http://www.w3.org/Graphics/SVG/1.1/DTD/svg11.dtd">
<!-- Creator: CorelDRAW -->
<svg xmlns="http://www.w3.org/2000/svg" xml:space="preserve" width="358.766mm" height="358.534mm" version="1.1" style="shape-rendering:geometricPrecision; text-rendering:geometricPrecision; image-rendering:optimizeQuality; fill-rule:evenodd; clip-rule:evenodd"
viewBox="0 0 23473.4 23458.23"
 xmlns:xlink="http://www.w3.org/1999/xlink"
 xmlns:xodm="http://www.corel.com/coreldraw/odm/2003">
 <defs>
  <style type="text/css">
   <![CDATA[
    .fil0 {fill:#22C55E}
   ]]>
  </style>
 </defs>
 <g id="Layer_x0020_1">
  <metadata id="CorelCorpID_0Corel-Layer"/>
  <path class="fil0" d="M6556.91 22052.41l259.6 98.98c-12.44,10.19 -27.52,39.94 -54.97,28.28l-215.04 -86.66 10.4 -40.6zm19.29 -14440.02c-15.02,55.34 34.07,15.36 13.82,3.75 -0.25,-0.14 3.32,-66.95 -13.82,-3.75zm5611.8 -5963.22c16.68,29.09 89.28,-10.19 29.1,-5.01 -0.6,0.05 -56.35,-42.52 -29.1,5.01zm-1181.86 21634.24l27.18 -18.2c22.23,-20.11 15.05,-14.66 35.5,-36.54 -64.44,5.95 -32.94,-9.41 -62.68,54.74zm-4425.95 -3520.62l12.09 -44.55 -89.11 -24.18c31.68,82.32 -24.16,31.8 77.02,68.73zm3047.21 1902.93l116.89 -58.64 -137.27 -42.55c-0.27,68.82 -1.42,40.04 20.38,101.19zm4523.58 -12.74c49.68,-17.32 31.98,-2.12 35.39,-41.87 72.65,-9.61 75.69,-24.97 109.02,-137.83l-126.73 37.36c-6.03,1.03 -13.99,-3.93 -18.13,2.81 -4,6.5 -14.22,2.46 -17.36,3.6 -32.33,11.7 -24.04,9.02 -43.07,20.12 -46.26,-2.32 -64.96,-4.44 -110.44,6.84 -117.76,29.2 -49.36,7.53 -101.11,55.23 -69.24,-16.95 28.1,-11.01 -40.49,1.66 -54.65,10.1 -12.35,6.32 -61.09,15.97 -65.34,12.92 -83.63,-0.67 -143.18,11.75 -76.39,-3.52 -115.16,12.44 -190.97,19.94 -56.26,27.24 -148.46,32.96 -214.23,54.42l-39.49 -3.67c-41.68,-11.31 -29.61,-17.21 -27.22,28.23 -84.81,-23.1 -708.96,60.48 -866.3,64 -178.17,3.98 -198.61,39.24 -313.64,10.76l-12.08 44.55c101.11,36.67 45.43,-13.32 77.02,68.73 -29.55,54.88 -38.01,59.96 -74.77,99.29 -108.39,-124.62 -50.92,-169.33 -261.71,-200.92 -291.65,-43.68 -221.56,111.2 -372.22,-18.9 -22.98,146.23 47.44,20.49 46.81,180.1 84.86,21 85.03,14.17 151.79,-30.56 -32.23,88.85 -91.53,143.14 -160.99,179.7 -138.06,72.67 -132.57,19.77 -205.27,-63.83 -125.79,28.36 -251.74,33.72 -425.6,-18.13 -111.39,-33.22 -320.22,-105.23 -319.71,-231.9 -134.7,-4.86 -93.89,41.19 -202.38,40.76 7.18,-199.6 -95.16,-35.02 -151.79,30.57 -88.54,-76.46 -231.59,-154.28 -366.32,-147.46 -247.43,12.52 -389.04,-182.88 -583.13,-229.73 -95.86,-23.14 -131.33,3.32 -200.66,14.27 -110.81,17.51 -40.68,-24.61 -169.08,-66.97 -114.53,-37.78 -94.27,12.23 -211.84,-9.4 35.26,-60.76 15.88,-46.52 132.5,-97.06 3.07,-1.33 10.21,-4 15.15,-6.39 -97.3,-28.74 -65.3,-33.9 -149.89,-64.58 -57.26,98.67 -76.8,74.83 -202.38,40.76l24.18 -89.1c-67.46,-19.92 -78.49,-32.09 -127.62,-58.54 -0.51,126.23 49.55,37.97 24.52,174.07 -111.93,-30.37 -114.87,-33.84 -194.45,-76.67 61.27,-87.24 68.58,-11.64 125.37,-109.48 -357.47,-96.98 -1222.04,-538.14 -1564.07,-740.16 -101.24,-59.79 -116.57,-86.31 -245.77,-119.55 -122.74,-31.59 -37.9,-32.48 -185.53,-159.97 -22.99,125 38.48,96.28 -68.73,77.02 4.15,-115.08 22.21,-101.08 -68.95,-167.91 -66.48,-48.74 -111.85,-69.43 -200.61,-72.63 -0.62,154.85 122.85,66.68 180.46,216.36 -309.75,-56.97 -141.12,-62.2 -350.38,-118.97 38.28,-71.11 78.6,-121.32 104.99,-210.67 -301.66,-162.38 -462.01,-458.43 -806.82,-553.4 -112.56,-30.99 -283.72,-74.78 -315.63,-157.7 87.31,16.06 169.82,5.88 257.13,21.93 -66.86,-99.78 -280.96,-283.37 -401.62,-409.42 -325.19,-339.64 -655.83,-723.72 -927.95,-1104.77 -59.25,-82.99 -114.35,-167.97 -182.45,-229.27 -24.95,-94.92 -76.11,-162.55 -138.66,-245.1 -99.72,-131.61 -73.31,-172.51 -180.22,-254.04l-0.08 -0.14c-10.45,-85.45 0.33,-50.92 -41.78,-128.08 -28.69,-52.58 -31.23,-64.78 -83.47,-97.11 -31.37,-71.63 -59.86,-107.59 -95.45,-174.97 -44.57,-84.38 -33.75,-116.23 -99.5,-188.82 -28.36,-93.84 -52.63,-178.1 -123.71,-243.13l-393.86 -963.88c-92.27,-278.27 -250.68,-750.91 -310.15,-1026.21 -77.44,-358.44 -149.92,-682 -201.68,-1069.57 -25.69,-192.35 -106.52,-1005.61 -78.28,-1159.11 -75.78,-2.73 -111.35,11.65 -193.03,-2.87 -121.98,-21.68 -135.42,-24.67 -135.08,-110.06l311.87 84.61c21.13,-114.87 -3.34,-215.13 17.78,-329.99 -354.54,-96.19 -339.48,-38.22 -322.06,-135.21 127.85,34.69 175.15,23.6 317.92,62.33 27.1,-751.9 117.57,-1491.21 355.18,-2366.99 -97.57,-28.81 -98.11,-50.53 -216.72,-82.71 71.4,-56.98 114.03,-16.89 234.85,15.89 26.13,-96.32 50.69,-195.05 77.91,-290.72l303.18 -849.52c-116.38,-28.81 -115.84,-14.11 -163.87,75.12 -60.31,-22.15 -47.85,-14.85 -42.66,-107.24 -52.54,-28.28 -126.34,-58.55 -166.12,-92.9 66.2,-52.84 179.12,-70.98 297.53,-38.86 -0.37,92.65 6.52,94.96 109.49,125.37l98.98 -259.6c-65.58,-34.72 -66.12,-42.39 -154.07,-66.25l12.08 -44.56c73.59,39.61 67.15,42.14 172.17,70.63 50.79,-187.24 288.26,-547.06 333.09,-698.86 -68.77,-12.65 -130.81,4.15 -163.61,-9.28 -88.75,-36.36 18.5,-50.14 -142.22,-97.61 32.18,-118.59 41.9,-145.9 -69.07,-186.15l63.81 -67.21c0.82,-1.34 2.55,-7.02 4.92,-9.8 88.5,16.27 63.49,-4.36 161.97,20.03 -5.31,2.57 -12.9,-0.5 -16.53,6.39 -8.99,17.06 -117.33,9.06 -5.2,116.88 74.88,72 126.67,72.61 246.75,105.19 44.05,-81.85 91.9,-149.99 133.3,-226.91 -299.93,-81.37 -672.09,-175.84 -844.6,-324.81 -108.91,126.12 -82.34,160.36 -257.11,207.85 -84.1,22.85 -260.4,63.1 -341.75,60.17l-12.08 44.55c97.55,28.81 98.1,50.53 216.71,82.71l-74.76 -107.65c-2.5,-2.53 -8.79,-7.31 -12.44,-11.67 235.15,63.8 149.2,86.71 253.9,84.01 192.3,-4.98 113.84,10.72 280.14,62.17 113.98,35.26 141.82,20.92 229.39,37.03 -47.92,162.24 -174.87,98.33 -195.85,94.56 -104,-18.69 -22.48,-42.72 -97.53,17.17 -9.04,-50.95 27.37,-41.36 -20.37,-101.19 -111.37,25.1 -35.34,-18.47 -113.28,64.93 -237.58,-137.88 58.43,21.45 -380.24,-101.75 -207.39,-58.24 -177.19,-186.39 -310.44,-85.64 -123.48,6.96 -180.47,16.86 -264.94,95.55 -77.62,72.32 -138.98,152.47 -126.01,288.11 2.41,85.48 93.12,263.81 139.64,343.67l173.91 351.81c5.59,-0.46 15.17,-9.4 16.23,-4.49 1.07,4.95 12.83,-3.57 16.42,-4.18 128.47,-21.77 338.29,57.91 441.2,113.3 -55.38,95.43 -20.41,38.91 -123.34,47.39 -5.87,0.48 -12.58,0.16 -18.33,0.86l-95.09 31.02c-27.84,-72.33 -78.13,-92.94 -182.35,-121.22 -0.82,206.79 168.9,329.52 -295.89,534.02l-616.73 269.67c-81.37,59.17 -155.69,210 -137.77,343.88 15.03,112.27 103.99,200.33 172.89,296 68.75,95.44 128.23,171.74 195.84,263.99 62.31,85 159.22,189.83 184.01,289.63 116.1,467.42 -827.22,603.17 -903.13,967.92 -59.56,286.14 348.73,615.76 457.82,611.23 444.48,-18.49 360.01,158.13 662.39,102.34 -35.44,119.97 -10.06,97.29 -117.24,52.91 -142.21,-58.89 -318.77,-51.62 -558.99,-116.79 91.31,136.28 284.82,192.93 277.85,386.29 174.44,32.09 226.61,-33.23 267.32,72.53 -93.36,-17.17 -127.32,-10.63 -251.09,-44.2 -81.66,300.99 -50.74,190.98 -334.31,466.99 -190.99,185.91 -718.74,529.66 -215.81,864.19 84.41,56.14 164.91,111.81 244.45,163.54 138.46,90.06 50.79,18.94 162.39,24.82 29.36,1.55 56.09,11.33 84.61,19.07l-48.95 81.45c461.16,249.96 239.96,504.8 76.87,722.14 -218.76,291.53 -472.37,520.74 -338.3,785.23 84.95,167.58 321.22,229.05 545.59,326.89 622.96,271.62 589.84,299.16 254.57,973.65 -104.27,209.78 -243.32,382.05 -124.89,588.67 188.3,328.5 1059.92,170.45 1174.13,549.8 117.14,389.09 -487.12,1002.7 -76.81,1286.13 108.63,75.05 193.8,70.83 309.35,74.25 69.01,2.05 81.35,3.64 155.06,7.89 166.29,9.58 183.3,-39.08 496.63,42.23 501.19,130.05 96.3,839.57 171.68,1182.33 34.04,154.83 143.04,269.2 308.66,285.7l470.04 -36 30.22 -111.38c44.58,25.87 20.37,16.11 49.14,47.08 62.24,67.01 -46.98,-14 44.11,49.97l32.79 -8.45c834.54,-186.23 426.91,735.44 610.4,1144.75 253.55,565.59 1080.23,-302.2 1455.59,68.65 79.61,78.66 95.85,229.82 118.99,345.66l87.54 382.51c25.66,128.78 50.34,241.27 155.03,325.12 250.2,200.39 482.49,-32.63 714.33,-132.98 371.93,-160.99 629.36,-437.29 865.16,262.2 56.79,-12.81 77.15,-18.97 129.51,-36.62 -14.3,77.73 -7.45,57.78 -23.52,129.29 -13.15,58.51 -32.46,39.75 15.94,99.8 72.99,90.55 120.74,67.31 230.69,94.52l-12.09 44.55c-76.62,-2.76 -108,11.34 -190.3,-3.79 110.33,327.28 379.22,367.08 555.25,246.66 85.96,-58.81 179.22,-128.04 264.48,-194.98 357.28,-280.51 571.53,-491.89 848.75,-105.05 36.14,50.43 50.5,87.39 83.42,140.3 60.18,96.75 134.03,225.49 211.67,255.08 70.32,26.81 174.8,39.37 210.76,69.07 -96.02,25.43 -84.39,12.42 -200.03,-18.95 7.83,23.23 4.21,30.67 26.13,59.44 31.78,41.72 6.77,19.94 43.97,34.77 6.34,81.58 15.32,87.84 112.25,122.68 69.4,79.91 322.02,69.14 396.83,-59.76 -117.9,-42.76 -19.24,-43.06 -133.62,-36.36l-65.1 -75.42c-3.32,-4.07 -7.67,-8.46 -10.74,-12.75l-43.75 -87.65c-29.6,-29.87 -10.57,-3.76 -10.3,-50.63l369.51 119.78c122.38,-3.46 56.65,-18.33 65.94,-49.48 94.03,-28.68 223.38,-209.55 379.08,-354.1 5.4,-5.02 21.9,-19.43 27.37,-24.87 37.7,-37.46 -5.18,16.15 44.28,-48.69 67.95,16.64 -26.22,5.55 41.68,0.26 1.79,-0.14 61.27,-7.19 66.66,-7.22 59.62,-0.3 77.16,9.33 136.93,25.54 166.37,57.5 249.13,248.76 396.86,346.83 42.68,102.78 224.41,239.76 320.15,307.04 485.37,341.11 703.71,-710.16 1001.01,-824.83 261.26,-100.77 492.34,162.52 828.29,414.58 156.48,117.4 290.95,186.86 460.71,92.51 81.82,-45.48 66.16,-57.71 74.75,-69.37l66.98 -72.34c43.57,-54.03 89.37,-182.2 112.2,-266.35 -176.54,-47.9 -411.67,-97.74 -577.7,-158 -85.57,-31.05 -137.77,-77.85 -258.71,-87.21 -102.47,-7.93 -162.6,47.83 -204.54,-61.12 96.28,-165.89 559.21,105.8 818.06,147.4 531.5,85.42 239.55,-223.57 551.05,-417.26 115,-71.49 208.54,-72.75 388.91,14.63 161.4,78.19 580.25,337.35 730.09,331.68 157.13,-5.94 218.59,-31.03 306.34,-157.09 84.23,-120.99 152.33,-634.67 236.78,-866.87 123.56,-339.74 493.55,-151.79 741.26,-86.1 170.49,45.21 555.83,275.37 737.77,-25.68 125.16,-207.09 51.67,-496.53 106.96,-797.13 -98.65,18.2 -85.23,-14.63 -178.21,-48.34l168.02 -2.25c121.66,-448.43 216.48,-384.67 818.66,-311.22 69.82,8.51 182.18,23.42 262.77,31.77 109.61,11.36 156.17,3.64 237.41,-45.28 236.91,-142.67 160.31,-332.24 180.22,-440.46 -36.54,6.75 -196.52,14.56 -240.89,6.4 9.71,117.61 10.67,-16.42 20.38,101.19 -105.51,-38.27 -31.88,-30.54 -133.66,-36.26 26.53,-49.29 81.45,-96.08 27.45,-151.61 -80.35,-82.65 -101.02,-12.03 -120.7,54.55l-66.83 -18.13c38.07,-104.97 71.91,-90.75 121.22,-182.35 184.66,99.41 182.6,-7.38 352.28,23.83 7.31,-202.85 -182.89,-683.39 177.17,-773.96 197.43,-49.67 699.02,-17.06 883.97,-66 372.21,-98.52 253.22,-465.48 167.35,-710.82l-121.81 -400.41c-26.62,-89.17 -31.97,-106.78 10,-233.24 37.92,-114.27 65,-110.93 123.26,-181.67 7.66,-0.94 20.63,-10.22 22.89,-3.54l590.24 -141.02c45.68,-10.32 45.97,-1.44 78.98,-26.41 91.16,-5.12 118.27,5.08 181.11,-50.9 112.09,-27.28 174.03,-112.54 216.31,-268.38 -12.19,-79.19 4.34,-80.64 -28.95,-157.76 -131.47,-343.85 -487.73,-768.28 -323.57,-1018.23 97.45,-148.4 312.02,-201.85 469.89,-264.89 93.61,-37.39 150.67,-62.6 242.9,-101.36 192.34,-80.85 357.55,-207.88 312.4,-445.01 -66.47,-349.14 -881.02,-820.84 -418.11,-1183.5l324.95 -220.77c45.84,-30.26 79.65,-44.07 127.64,-72.7 167.37,-99.84 345.65,-213.8 323.46,-439.87 -18.88,-192.36 -193.23,-300.68 -333.41,-429.95 -69.97,-64.51 -114.62,-117.65 -195.63,-188.86 -169.67,-149.15 -280.99,-282.3 -155.97,-523.42 25.92,-49.99 146.74,-147.53 203.93,-202.62 233.68,-225.1 753.1,-567.96 347.74,-892.88 -176.13,-141.17 -606.51,-332.12 -724.51,-506.51 -75.41,-111.45 21.02,-174.95 -146.62,-235.76 146.9,-52.36 112.48,-70.33 324.6,-352.64 323.86,-431.03 183.95,-219.42 222.97,-431.53l89.11 24.18c136.39,-502.73 -266.02,-543.13 -796.14,-766.45 -122.79,-51.73 -156.92,-82.88 -210.19,-180.52 -53.65,-98.31 -48.66,-152.35 6.71,-303.74 27.09,-74.08 259.4,-522.99 296.78,-566.26 -110.94,-59.72 -87.08,-26 -109.49,-125.37 151.9,59.6 -28.54,19.48 115.53,103.09 47.89,-132.03 81.35,-154.63 45.09,-308 -62.19,-262.99 -358.08,-254.72 -569.68,-311.82 -132.54,-35.76 -272.29,-70.43 -403.21,-108.78 -297,-87.02 -252.44,-301.05 -183.3,-553.37 35.36,-129.02 62.95,-270.5 115.76,-389.09 85.5,-192.01 55.73,-193.53 61.44,-352.08 -124.43,-22.89 -223.08,8.15 -352.27,-23.83l36.26 -133.66c60.23,16.34 105.63,36.36 128.47,42.18 33.6,8.56 93.55,18.06 138.85,30.35 -142.52,-370.32 -942.68,-63.3 -1209.87,-303.55 -133.25,-119.81 -70.85,-259.78 -143.29,-350.55 -20.54,24.12 -6.7,-6.39 -15.74,31.13 -0.14,0.58 -7.05,50.45 -8.43,57.97 -155.08,-90 -129.84,-217.31 -492.19,-302.28 -122.76,-28.78 -191.2,-26.3 -340.4,-66.78 -143.94,-39.05 -215.39,-82.67 -328.02,-113.22l24.18 -89.11c194.37,52.74 383.7,147.02 616.84,190.02 358.19,66.05 332.82,91.55 602.31,164.66 29.9,-110.2 35.61,-253.08 50.69,-367.67 22.09,-167.93 28.76,-195.89 -3.03,-336.88 -97.29,-3.51 -157.16,20.22 -194.45,-76.67l155.93 42.31c-195.09,-578.73 -1404.13,429.76 -1431.75,-552.63 -26.24,-932.96 -29.58,-629.39 -218.63,-816.18 -101.37,-100.16 -55.32,-158.82 -369.34,-54.36 -109.46,36.41 -338.49,83.17 -407.19,142.93 168.43,30.97 345.16,25.88 405.12,181.65 -82.4,-22.36 -188.49,-45.06 -266.5,-73.01 -82.96,-29.72 -152.68,-98.18 -226.47,-98.99 -116.57,-1.28 -236.7,117.13 -441.91,-82.26l-64.02 -57.35c-94.3,-75.22 -126.73,-165.36 -253.78,-230.78 -165.15,-85.04 -345.55,-82.53 -525.64,-131.39 61.48,-87.56 57.06,11.36 103.09,-115.53 130.4,35.38 171.33,24.08 279.4,27.98l-10.4 139.87c67.49,2.39 158.32,32.71 172.04,30.98 78.2,-9.85 -5.76,-38.88 -34.02,-112.31 147.38,-49.69 49.69,-14.21 206.53,32.11 -130.48,-387.07 -92.31,-957.29 -782.5,-577.49 -152.34,83.84 -387.73,224 -544.32,264.92 -41.41,10.82 -110.85,17.48 -164.97,0.91 -118.95,-36.42 -116.26,-97.87 -341.94,-161.04 -63.99,-17.91 -123.23,-43.64 -165.09,-93.5l289.59 78.57c-20.18,-89.51 -45.17,-132.66 -81.59,-216.6 -79.75,-183.81 -172.99,-553.27 -360.8,-640.67 -288.01,-134.02 -496.74,117.98 -687.83,263.91 -67.19,51.31 -139.83,80.53 -188.23,163.92 72.53,-13.39 215.9,18.4 289.34,78.69 87.19,71.58 43.02,12.93 48.95,84.83 -75.63,-40.72 -147.06,-78.34 -237.56,-51.26 -98.45,29.46 -79.1,103.47 -112.46,195.46 -136.26,-156.68 -79.73,-102.67 -12.44,-218.62l-81.46 -48.94c-70.31,62.24 -56.53,29.97 -60.14,130.11 -131.09,-35.57 -212.41,-68.62 -297.23,-130.63 -89.94,-65.75 -92.02,-136.32 -189.05,-192.64 -5.97,165.74 -6.93,64.89 -76.67,194.45 -102.13,-59.26 -7.07,-47.57 -120.57,-76.01 -56.29,-14.11 -124.24,16.02 -158.43,-42.59 -52.79,-90.47 171.7,-108.67 244.29,-106.06 -62.1,81.94 -42.35,-16.72 -118.84,55.25 -26.28,24.72 -9.68,-4.52 -28.8,48.19 87.95,23.86 92.29,17.52 161.98,20.03 64.1,-76.39 12.48,-44.54 38.23,-82.11l70.9 -55.69c-78.17,-89.88 -136.35,-194.25 -199.24,-299.67 -40.13,-67.28 -62.49,-81.86 -103.23,-147.68 -46.99,-75.96 -42.35,-92.36 -149.27,-129.61 -42.33,-63.62 -161.35,-59.13 -238.96,-37.27 -111.3,31.36 -144.26,66.86 -211.25,148.15 -293.51,178.98 -424.37,728.52 -860.96,536.49 -84.25,-37.06 -202.21,-198.18 -277.63,-265.27 -31.65,-56.62 -61.44,-95.33 -131.18,-131.26 -22.27,-58.33 -220.64,-293.03 -390.08,-304.07 -228.51,-14.88 -299.91,115.3 -416.58,291.44 -55.76,84.19 -100.36,146.71 -151.51,227.96 -84.07,133.51 -175.84,345.61 -345.96,381.12 -164.21,34.28 -147.89,3.27 -291.25,-48.72 -60.88,52.95 -53.18,17.67 -97.05,93.25l-222.76 -60.44 24.18 -89.1c58.45,10.75 67.21,9.74 121.08,14.32 118.94,10.12 44.36,39.51 119.81,-20.71 -163.18,-87.84 -330.1,-245.48 -490.87,-358.27 -491.52,-344.85 -652.38,304.5 -825.21,720.63 -214.32,516.01 -632.15,138.8 -1117.42,-97.85 -213.77,-104.25 -428.53,-6.43 -514.59,205.96 -87.22,215.26 -89.84,865.16 -367.63,965.26 -373.26,134.5 -1348.38,-717.44 -1376.6,256.8 -4.29,147.93 -20.45,548.45 -62.29,677.44 -144.78,446.41 -910.33,12.88 -1219.58,138.44 -251.53,102.14 -249.67,272.78 -218.51,533.27 44.06,368.36 157.85,719.47 -80.48,881.51 -87.12,59.23 -214.66,23.08 -290.64,83.7 75.94,40.88 68.09,31.68 93.25,97.05 -227.33,-122.37 -590.4,-144.92 -794.69,-73.61 -101.56,35.45 -203.78,134.52 -224.41,263.68 -20.65,129.23 23.44,257.05 78.76,366.93 -3.04,74.75 2.62,70.76 21.47,137.97 33.4,119.09 -9.62,60.89 73.65,128.03l-22.19 -5.9 84.79 304.54c-32.35,129.7 -24.53,108.77 91.1,158.98 394.41,171.25 572.9,4.99 572.05,217.59 161.99,5.84 250.53,51.43 339.84,-194.79 -152.18,-5.48 -322.78,-63.65 -498.29,-111.27l-34.45 9.04 -9.29 -20.32c-1.41,-7.39 19.39,-0.34 34.29,-7.32 38.35,-17.97 14.75,-6.24 35.1,-22.28l507.02 113.64c33.07,-61.43 80.01,-112.93 123.38,-178.58l377.73 -522.52c-73.51,-2.65 -72.24,10.94 -145.75,8.29l18.14 -66.83 155.93 42.31 254.15 -319.71c54.69,-39.98 32.29,-11.25 67.21,-71.41 -87.95,-23.86 -92.29,-17.52 -161.98,-20.03 18.59,-12.99 32.78,-49.31 40.38,-60.67 48.37,23.02 -10.8,19.76 44.69,12 112.36,11.91 127.35,28 197.84,-48.58 43.04,-46.76 88.41,-95.36 118.01,-146.36 55.57,-44.58 71.51,-54.16 99.67,-122.81 63.69,-19.81 96.71,-48.31 133.03,-117.82 63.65,-39.47 31.23,-7.24 66.09,-67.32 -87.94,-23.86 -88.49,-31.53 -149.89,-64.58l12.2 -44.52c170.84,18.59 62.35,5.59 194.33,76.64 51.69,-55.31 86.28,-84.72 147.18,-137.03 62.06,-53.31 105.67,-74.63 146,-150.24l25.74 -14.3c3.64,-2.41 20.62,-13.26 25.57,-16.93l187.94 -163.9c190.03,-165.42 671.66,-495.94 760.94,-582.44 59.57,-14.11 116.09,-48.43 171.16,-88.74 34.55,-25.3 41.67,-32.54 78.51,-57.78 78.16,-53.55 38.81,-7.37 100.63,-86.82l558.4 -308.24c69.06,-29.75 145.92,-46.33 188.44,-112.73 91.89,5.29 62.07,5.27 139.15,-38.52 54.57,-31.01 80.25,-44.59 123.42,-87.63l575.96 -234.03c87.47,-34.64 553.04,-187.54 604.31,-237.62 86.82,18.12 94.22,7.14 155.05,-42.59 60.27,-2.41 353.46,-84.92 389.23,-111.97 33.92,-2.03 60.01,1.67 95.04,1.87 -17.73,-123.08 25.51,109.44 -24.21,-53.59l91.4 -23.86c14.64,3.98 51.48,15.65 65.75,15.74 66.54,0.46 9.27,13.3 41.02,-10.69 53.74,4.44 47.75,9.62 84.98,1.07 123.93,-28.49 20.9,8.64 85.03,-50.48l111.6 0.03c89.05,-16.42 312.26,-42.85 366.07,-85.8 -68.03,-24.68 -72.97,-44.26 -149.76,-64.86 -100.79,-27.05 -80.33,-0.05 -184.39,-25.8l-26.42 -78.91c-65.21,86.04 -167.79,-22.59 -281.35,-76.33 -16.53,-21.25 15.1,-32.28 -65.87,-39.03 -96.44,-8.03 -63.05,10.23 -89.14,48.86 -63.79,15.97 -79.59,15.13 -117.02,83.77l-24.14 -4.22c-59.79,-97.19 -153.93,-115.83 -270.87,-147.56 33.55,-113.59 92.44,-150.64 271.1,-117.78 -2.07,69.36 -11.56,31.31 26.43,78.91 44.85,-35.79 53.08,-46.03 129.62,-36.57 7.07,-2.17 19.48,-12.35 21.43,-5.71l76.36 -5.57c26.33,4.55 21.87,13.68 77.32,34.87 51.58,46.38 5.07,20.2 91.48,50.74 17.56,6.2 90.62,23.04 110.26,25.88 67.46,9.74 133.47,-1.92 203.06,9.29 91.81,7.31 97.65,2.58 210.19,33.11l118.96 32.27c18.74,83.1 47.03,126.05 91.36,192.2 358.85,-80.92 425.66,-61.71 831.47,-91.93l872.91 -19.65c27.23,-42.88 -54.85,-19.16 -10.19,-50.6 106.48,-74.95 326.37,50.54 456.94,75.24 179.53,33.96 612.58,49.97 994.25,126.32 151.22,30.25 375.2,63.24 524.93,95.3 707.36,151.49 1479.66,442.56 2031.88,697.94 70.86,32.78 136.5,68.1 211.95,105.55 96.05,47.68 147.62,33.58 201.09,71.4 59.08,41.78 36.26,63.43 180.1,117.19l957.06 604.46c213.14,141.84 833.06,639.88 1009.45,813.5 61.9,60.93 77.58,95.85 151.71,138.79 64.11,37.15 165.57,92.89 226.22,114.89l-23.93 23.77c-1.33,2 -7.92,8.84 -9.17,11.29 -17.19,33.51 -28.66,-11.53 -2.6,42.89l1190.21 1454.99c33.91,68.22 43.36,109.96 108.49,149.01 50.12,128.08 136.09,215.46 204.47,336.38 65.71,116.19 124.75,222.48 190.98,331.46 20.62,106.35 81.8,159.98 124.63,258.93 42.23,97.52 73.1,187.14 151.26,259.83 3.62,31.91 -2.01,7.4 7.81,45.62 5.16,20.14 12.42,41.82 20.54,61.32l159.46 360.68c106.28,252.79 360.94,980.62 424.61,1261.59l107.36 244.28c-1.22,3.69 -4.06,6.77 -4.63,7.88l59.66 444.87c35.9,175.29 54.51,337.64 82.6,517.03 142.99,913.27 117.83,1943.28 -25.96,2874.34l-115.23 649.22c-83.17,642.37 -576.97,1830.47 -882.41,2446.65 -277.64,560.08 -837.96,1430.82 -1233.72,1851.23 -23.71,25.55 -46.24,51.11 -67.16,77.26l-76.39 99.27 -138.04 153.65c25.48,74.01 46.32,57.11 47.23,103.23l-10.17 26.76c-61.48,8.13 -34.34,-49.27 -56.52,32.49l-66.24 -49.09c-78.99,-15.33 75,-42.12 -20.92,2.38 -34.13,15.83 -0.7,-11.78 -29.34,35.36 -21.96,15.81 -40.38,29.66 -59.62,43.46 -61.99,60.65 -61.34,61.27 -107.05,130.11 -34.63,14.38 -297.72,271 -327.7,317.78 -73.65,27.35 -86.87,28.19 -115.11,112.27 -74.06,20.28 -421.84,332.07 -497.47,391.19l-483.45 371.08c-135.76,41.42 -587.72,377.31 -738.32,451.23 -133.02,65.28 -97.51,28.57 -266.97,137.01 -41.4,17.6 -23.09,2.97 -26.32,40.7 -98.52,12.04 -32.82,1.13 -113.85,33.32 -35.17,13.97 -55.94,22.2 -89.8,38.03 -70.98,33.18 -128.74,64.17 -181.91,116.08l-869.06 347.65c-76.12,25.33 -257.2,70.62 -303,118.56 -80.31,-2.77 -29.75,-9.59 -104.04,19.6 -55.23,22 -85.35,22.57 -166.49,42.89 -70.17,17.57 -92.25,36.33 -168.82,33.56 -3.96,109.74 7.25,61.75 -43.4,159.97 -45.86,48.58 -25.71,14.3 -51.41,101.3 26.12,31.1 32.28,35.84 61.96,64.64 62.31,48.04 25.21,35.19 -52.02,43.33 -66.25,6.99 -103.95,5.32 -171.29,-8.26l-108 -29.3 -11.92 -3.36c-0.48,-3.62 4.56,-53.76 -4.17,-72.76 106.11,19.52 30.8,32.75 100.28,-16.99zm2998.72 -13491.83c74.01,18.05 84.36,5.1 154.5,18 -5.9,-17.52 -5.71,-36.29 -23.57,-60.93 -47.64,-65.72 -1.63,-11.17 -63.52,-58.36 -22.89,-101.09 -414.17,-582.96 -506.72,-687.88 -641.47,-727.19 -1403.59,-1292.21 -2302.16,-1690.38 -1265.73,-560.86 -2575.19,-678 -3893.46,-452.99 -137.12,23.42 -157.92,-2.03 -164.08,107.4 -218.58,-59.3 -288.32,-4.36 -541.33,73.02 -548.46,167.74 -893.66,326.22 -1397.13,614.81 -442.24,253.49 -857.26,560.38 -1224.47,916.03 -77.32,74.89 -314.2,293.18 -364.98,380.67l77.02 68.73c-76.78,-2.77 -109.64,-11.21 -168.32,34.55 -38.79,30.25 -96.94,105.48 -120.92,150.05 103.84,37.67 126.08,54.03 97.4,169.92 -124.44,-45.13 -45.04,-93.23 -154.33,-75.28 -66.66,10.95 -314.41,382.87 -357.33,462.62 585.22,21.09 291.4,75.29 862.3,-563.28 48.46,-54.21 75.53,-89.13 127.51,-138.58 58.17,-55.37 83.38,-67.37 124.51,-143.79 -70.46,-3.96 -38.37,10.38 -63.73,-24.12l-23.48 -95.2 178.21 48.35c135.63,-145.12 331.29,-299.45 490.8,-423.73l516.28 -379.27c-134.11,-39.61 -69.2,-3.28 -77.02,-68.73 226.2,61.37 163.39,18.93 519.72,-176.37 409.52,-224.46 1149.35,-476.67 1594.78,-565.36 963.16,-191.77 1911.39,-163.86 2876.42,61.97l1023.44 374.02c995.61,457.15 1677.57,1039.25 2342.51,1855.38 183.75,225.52 116.96,309.38 461.16,268.72zm-494.02 1085.68c-63.92,-6.96 -56.05,-9.21 -99.8,-8.77 -98.2,1.01 -28.99,-1.07 -67.8,11.13 -67.19,-12.39 -224.34,-20.66 -272.3,-2.13 -62.8,-12.64 -33.22,-15.96 -92.44,-12.32 -78.61,4.84 -41.75,-6.37 -95.04,33.08 -84.22,-56.19 -178,-24.2 -279.44,-27.86 -30.57,112.67 -17.19,166.2 -24.29,265.86 0.72,49.86 5.72,47.33 -5.57,108.69 134.96,-45.49 193.94,-10.32 112.72,70.93 -2.85,2.85 -10.44,7.41 -15.47,11.36 -11.52,0.67 -46.62,-3.23 -70.83,-3.37 -50.97,205.92 14.43,928.98 -28.82,1164.07 131.51,35.68 194.83,77.78 350.2,119.08 126.41,33.6 252.62,68.39 378.88,102.64l-702.65 -142.8c-31.6,116.46 -14.89,176.73 -17.93,292.46 -3.1,118.29 -2.15,193.73 113.78,235.78 45.7,-59.29 -2.28,-56.5 24.18,-89.1 105.71,38.33 79.17,51.41 75.12,163.87 -77.36,-20.99 -302.7,-186.63 -208.08,326.21 209.39,112.71 285.44,57.44 360.56,169.57 -154.26,-41.85 -232.03,-39.03 -362.46,-74.42 -18.25,99.22 -4.78,192.82 -5.54,285.35 -0.83,100.48 1.59,179.04 0.18,282.07l-11.89 1699.92c98.12,24.29 235.96,16.55 328.06,14.39l961.41 3.48c482.28,-11.38 783.19,13.82 1197.61,-142.39 688.13,-259.39 1297.51,-827.78 1451.18,-1888.3 48.38,-333.87 24.34,-919.59 -56.78,-1246.68 -52.16,-210.33 -113.56,-340.44 -195.58,-527.51l-82.21 -140.99c-2.36,-4.12 -5.37,-10.27 -7.73,-14.38 -260.29,-453.47 -743.07,-806.35 -1331.29,-968.14 -227.24,-62.5 -1056.55,-111.54 -1319.93,-70.76zm-5440.41 -6833.17c127.67,125.48 148.01,-16.63 163.88,-75.12 -91.62,-16.85 -122.69,4.16 -163.88,75.12zm-4562.22 17344.99c-20.03,73.82 41.3,100.64 109.48,125.37 63.75,-234.97 -103.28,-148.21 -109.48,-125.37zm7136.18 -10524.18c-0.41,101.91 48.17,108.74 154.04,137.45 85.17,23.11 6.25,9.04 72.87,-4.14 -30.57,-79.44 -149.44,-141.49 -226.91,-133.31zm-3613.22 12436.6l-12.09 44.55c113.65,30.84 150.94,58.58 222.15,61.81l210.56 -28.93c3.09,-1.24 9.81,-4.78 14.71,-7.15 -153.3,-28.2 -249.86,-19.96 -435.33,-70.28zm4246.48 -11116.82c-94.87,-18.75 -98.88,-2.92 -212.52,-33.75l-500.16 -111.78c-44.79,180.99 16.86,714.93 -29.17,900.9l926.74 205.85c204.57,5.34 22.21,-91.9 290.17,-19.2 37.72,-139.03 19.32,-135.19 -2.33,-219.11 -21.29,-82.55 12.89,17.46 20.11,-110.89 -181.2,-49.16 -54.76,-9 -202.38,40.76 -21.91,-128.92 88.05,-117.6 198.23,-113.62l9.38 -757.87c-0.16,-64.62 -9.58,-171.19 -0.55,-244.33 16.27,-149.53 -2.05,-301.61 3.42,-453.36l6.05 -22.28c-11.05,-59.87 1.73,-43.8 -1.62,-91.71 -7.07,-101.04 -7.26,-70.39 -39.03,-110.64 50.75,-70.85 93.08,-182.79 -63.16,-182.81l-896.73 18.05c154,82.9 182.59,84 208.78,200.14 -181.39,33.47 -143.29,-105.43 -357.2,-64.48l-84.18 16.47 -0.85 884.66c80.38,21.81 390.7,133.92 442.26,167.82l240.62 65.28 20.13 5.46 64.46 17.49c117.8,31.96 33.36,9.28 60.9,40.44l-101.36 -27.5zm-3693.72 11195.03c8.12,98.27 46.62,53.97 24.53,174.07 97,-37.33 30.25,-60.97 147.92,-70.13 108.64,-8.46 118.26,37.83 173.78,-57.84 -134.24,-36.42 -211.99,-9.68 -346.23,-46.11zm-2203.27 -8451.59l-149.64 375.25 -41.99 154.78c-30.83,58.1 -42.12,67.14 -64.5,149.62 -33.61,123.88 -60.72,144.2 -89.18,240.54l1315.85 -1.75c51.51,-189.85 102.71,-285.21 149.41,-461.38 21.25,-80.19 41.85,-167.66 65.74,-246.34 33.8,-111.34 53.26,-105.28 83.24,-215.8 129.16,23.76 1355.97,0.35 1623.57,9.99 28.78,85.37 278.86,835.94 278.55,912.64 117.78,29.15 1139.67,14.39 1309.81,20.52 3.4,-94.34 -196,-592.16 -232.28,-694.59l-773.63 -2096.21c-25.57,-64.28 -38.05,-108.23 -60.09,-172.5l-197.23 -526.57c-86.69,-244.78 -169.06,-464.34 -254.75,-700.52 -85.46,-235.52 -50.03,-184.99 -128.01,-227.62 -99.05,-54.15 -216.7,-129.69 -277.85,-123.6 -487.08,48.47 -608.29,-174.99 -893.55,-211.82 -68.58,-8.86 -152.93,-0.62 -239.7,-22.1l-336.89 889.16c39.32,36.76 44.41,45.24 99.29,74.78l-117.43 -7.94c-24.62,90.76 -90.13,263.87 -131.9,360.65l-666.79 1790.51c-34.21,107.58 -84.24,249.76 -132.01,360.45 -41.7,96.64 -113.17,278.21 -138.03,369.86zm-1871.29 -7912.24c233.56,127.57 59.45,-32.94 218.71,60.38 52.5,30.76 99.35,67.26 170.18,92.95 6.52,-180.76 -179.48,-335.46 -388.89,-153.34zm13142.37 1389.19l12.8 27.39c-56.09,-2.73 -76.05,7.69 -143.25,-13.84 -72.8,-23.33 -68.22,-30.38 -98.57,-75.69l229.02 62.14zm184.81 145.8c-14.8,-92.36 -127.55,-252.9 -191.76,-315.1 -2.29,-81.73 -22.26,-78.4 -62.88,-133.95 -16.57,-22.67 -21.88,-35.18 -36.47,-54.28 -48.96,-64.11 -1.28,-20.32 -70.48,-73.08 -15.05,-66.49 -254.02,-378.45 -316.5,-458.3l-376.02 -461.72c-131.96,-151.11 -268.22,-288.73 -402.11,-427.94 -76.84,-79.88 -130.39,-132.25 -220.38,-212.3 -85.76,-76.3 -132.37,-132.6 -221.17,-211.84 -298.02,-265.95 -659.43,-542.24 -995.2,-765.23 -180.07,-119.59 -681.07,-478.33 -895.61,-488.36 -126.71,-5.93 -212.09,51.1 -310.05,50.71 51.51,-88.77 77.08,-37.79 79.23,-93.01 3.21,-83.24 -9.67,12.58 -91.76,-17.5 -109.74,-40.19 -64.29,-187.37 -202.29,-67.35 126.24,34.25 90.83,3.8 99.29,74.76 -52.97,-28.51 -77.97,-36.91 -142.16,-69.01 -43.37,-21.68 -78.72,-49.14 -129.31,-76.38 44.42,-51.43 26.8,-18.32 52.5,-105.34l123.47 -14.33c-167.74,-45.51 -377.31,-146.95 -524.35,-207.38 -131.4,-54.01 -1002.84,-338.6 -1134.01,-355.58l-595.82 -120.53c-340.99,-76.98 -1396.47,-174.33 -1762.19,-151.11l-837.3 46.72c-692.35,57.32 -1408.09,218.79 -2066.82,431.05 -154.55,49.8 -981.67,362.47 -1037.42,422.02 -172.4,21.08 -897.83,465.15 -1051.83,560.67 -4.04,2.5 -9.77,6.24 -13.85,8.66 -88.28,52.5 -279.51,151.43 -323.08,230.5 -196.21,46.24 -1258.86,985.73 -1485.08,1242.58l-279.55 298.45c-80.84,73.6 -654.29,802.8 -696.62,919.5 104.02,25.75 158.85,3.85 257.13,21.93 -0.4,99.78 -2.83,49.95 64.93,113.28 176.64,-328.15 866.96,-1099.67 1154.85,-1365.7l639.41 -558.3c222.8,-190.77 459.14,-331.48 683.55,-509.46 67.57,-27.45 110.08,-56.56 174.87,-93.42 68.46,-38.94 129.27,-53.4 171.87,-126.81 -144.2,-39.13 -215.38,-82.35 -328.1,-112.93 95.24,-33.94 130.58,11.38 273.42,51.88 200.73,56.9 163.75,27.28 477.49,-153.1 76.39,-43.92 167.59,-75.01 236.25,-133.2 253.72,-164.55 1243.78,-495.99 1500.61,-578.12 319.29,-102.1 867.12,-222.12 1219.04,-269.34 357.02,-47.89 39.18,-33.91 190.56,-127.55 55.97,-34.62 69.09,-9.13 107.32,23.89 -43.12,56.9 -45.6,10.93 -113.28,64.93l435.48 -27.94c30.69,-2.83 31.42,-0.75 69.28,-10.4 51.68,-13.17 32.56,-8.9 61.99,-23.14 -238.64,-64.74 -387.59,-152.99 -589.38,-207.73l6.05 -22.28c453.54,123.05 420.68,-72.34 435.34,70.28l155.93 42.31 36.26 -133.66c200.84,54.49 342.48,69 518.4,116.72l-1.82 34.55c0.09,2.56 -0.12,9.98 0.1,12.95l16.04 75.96c92.53,22.91 177.74,14.94 272.84,16.52 97.93,1.64 180.86,7.28 271.08,13.45 639.15,43.8 1105.97,106.74 1784.56,290.84 60.55,-112.48 63.42,-156.01 171.81,-192.55 -32.77,60.89 -79.92,141.57 -104.99,210.68 365.95,99.28 668.28,186.54 973.19,307.55 319.79,126.91 565.67,239.62 847.33,379.67 956.04,475.37 1890.77,1196.44 2594.8,1974.13 196.91,217.51 795.29,939.46 930.89,1204.6 102.7,167.48 179.36,309.51 274.21,474.98l194.62 339.89c64.96,121.52 19.77,79.7 79.87,124.9 62.39,172.57 140.4,322.78 216.99,495.1 77.24,173.79 140.37,348.82 199.79,525.09 151.17,41.02 166.78,15 204.63,127.26 -91.54,-16.83 -90.07,14.58 -155.93,-42.31l301.18 1181.85c79.4,394.07 139.51,833.29 163.39,1260.83 34.87,624.31 -3.86,752.51 -20.99,1273.06 -0.26,8.02 -1.09,31.63 -0.63,39.17 10.38,169.98 43.37,-10.76 -10.62,160.1 -9.21,29.15 -19.17,119.13 -25.99,178.77 -92.57,808.55 -306.96,1528.6 -584.54,2290.65 -187.35,514.34 -662.85,1405.08 -981.69,1831.9 -198.22,265.36 -348.63,494.87 -581.08,758.52l-634.98 664.48c-50.1,43.84 -197.4,171.39 -228.49,224.96 107.2,19.72 129.8,-19.84 222.76,60.44 -116.92,101.68 -161.56,31.44 -307.72,-11.74 -129.72,138.79 -164.9,114 -278.37,274.33 -1.76,2.48 -4.72,8.8 -6.61,11.05l-42.95 28.32c-54.51,22.95 3.68,-17.53 -76.26,30.5 -0.63,0.38 -57.52,44.63 -65.36,50.92 -91.03,73.04 -174.5,124.34 -266.79,190.97 -88.95,64.2 -191.64,125.94 -266.21,200.22 -62.8,12.99 -94.71,40.33 -158.3,76.21 -26.05,14.7 -47.8,23.84 -70.7,38.79 -75.45,49.26 -31.35,7.13 -87.03,80.13l-141.74 81.24c-90.56,11.08 -46.4,-1.68 -127.3,42.72 -40.77,22.37 -68.46,41.3 -111.32,65.93 -79.24,45.53 -137.94,75.24 -215.25,126.96 -145.88,67.36 -286.74,139.13 -440.97,205.09 -388.96,166.34 -1057.07,410.4 -1464.15,497.89 -692.58,148.87 -872.6,196.37 -1603.93,254.04 -215.85,17.02 -120.15,54.73 -233.79,84.43 -94.05,24.57 -194.71,-18.56 -318.94,-27.17l-105.71 -14.71c-22.79,-9.23 -3.33,-23.29 -119.99,-26.34 -110.69,-2.89 -175.55,-0.69 -289.47,-8.56 -193.96,-13.41 -399.13,-23.67 -612.64,-51.39 -830.17,-107.81 -1823.23,-358.45 -2597.25,-695.66 -190.7,-83.08 -398.99,-199.49 -609.01,-204.78 -307.47,-7.75 -355.96,-129.45 -395.83,36.36l-27.63 45.35c399.09,214.83 1194.31,614.74 1664.41,739.08l486.07 157.78c82.96,12.29 83.39,10.67 111.87,-67.83 130.31,75.63 -25.76,83.9 128.15,127.98l744.03 146.47c1562.86,198.19 2668.57,185.31 4185.79,-246.02 233.12,-66.27 1305.89,-421.75 1419.51,-543.1 103.58,-12.66 399.3,-155.36 446.97,-237.48l-155.93 -42.31c40.93,-34.38 13.15,-25.77 70.82,-28.61 247.99,-28.15 -72.85,207.39 593.2,-191.34 74.12,-44.37 101.95,-76.31 180.94,-124.79 74.81,-38.83 175.05,-71.77 223.17,-154.38 104.73,-36.01 628.8,-446.02 722.07,-545.82 -110.19,-20.26 -153.42,29.91 -194.45,-76.66 65.92,-52.61 5.8,-40.77 121.96,-16.95 43.45,8.9 111.16,32.36 157.43,44.92 262.24,-280.58 673.72,-607.67 1005.55,-1002.6 163.94,-195.12 303.5,-370.66 458.92,-578l131.1 -201.19c326.09,-354.65 826.33,-1388.27 1026.46,-1848.81 117.21,-269.74 233.09,-698.71 299.66,-855.65 155.68,-367.05 118.96,-455.91 175.75,-675.38 414.4,-1601.67 280.82,-3713.18 -264.98,-5190.78 -70,-189.51 -317.54,-881.32 -407.27,-966.83 2.32,-88.3 -0.88,-56.46 -41.78,-130.48 -35.07,-63.47 -32.18,-71.87 -60.87,-134.21 -36.28,-78.82 -95.52,-187.7 -157.54,-241.12l-3.84 -19.56c-15.26,-56.47 -24.58,-66.06 -49.48,-126.26 -35.08,-84.83 0.33,-61.02 -86.54,-107.36zm-16988.05 939.63c97.63,28.83 95.98,49.95 328.1,112.93l70.62 -172.17c-144.18,-39.12 -307.05,-98.72 -398.73,59.24zm16673.1 10741.59c72.07,-2.26 134.43,12.56 227.68,37.86 135.47,42.02 139.17,151.14 32.91,144.36 -97.7,-6.24 7.42,-46.81 -280.97,-53.51 -168.32,-3.9 -259.49,2.52 -309.73,-146.52 121.1,29.98 222.16,4.49 330.11,17.81zm-7812.03 3955.25l151.17 41.01c87.81,23.83 88.24,31.48 149.56,64.5 -5.35,1.65 -12.31,-2.12 -16.4,3.61l-52.61 6.72c-38.13,0.54 -51.49,0.56 -109.28,-10.87 -34.62,-48.25 -59.8,-40.15 -139.51,-61.77l-66.98 -18.17 12.13 -44.54 71.92 19.51zm-5183.63 -16879.97c188.75,51.21 299.84,112.61 354.18,-71.32l-169.65 -90.38c-271.68,-108.13 -83.18,-28.68 -229.43,-113.55 -30.78,113.45 -64.9,245.46 44.9,275.25zm6660.47 13884.57c78.6,117.3 96.85,341.73 130.21,489.73l252.84 -51.62c-29.65,-131.44 -45,-256.01 -87.41,-381.81 -99.16,-24.55 -163.42,-20.43 -295.64,-56.29zm-9384.11 -15006.15c-86.38,-23.44 -111.8,-42.03 -180.81,-72.97 -55.09,-23.76 -53.25,-33.12 -77.13,-68.77l167.27 45.38c83.56,22.67 133.44,43.39 190.89,70.5 64.42,30.41 43.53,-0.14 81.32,48.04 71.89,91.66 1.16,41.51 -12.42,47.62 -72.02,-29.22 -61.55,-40.62 -169.12,-69.8zm8682.01 18426.98c-56.57,-27.93 -41.61,-21.07 -93.06,-49.16 53.51,-25.9 36.65,-23.14 108.08,-18.52l101.48 67.49c2.96,2.35 9.26,7.16 13.2,11.46l-129.7 -11.27zm-1830.52 -21686.19l11.21 -32.75c21.41,-11.61 1.66,-30.08 119.51,-6.14 33.36,6.77 97.86,28.65 134.57,38.96l556.18 151.71c69.64,24.52 158.17,70.56 205.42,126.81l-429.69 -104.45c-2.81,-0.84 -45.95,-13.23 -47.52,-13.81 -152.32,-56.09 -6.55,-48.86 -168.45,-57.14 -53.22,-2.72 1.33,11.22 -45.54,-3.36 -66.93,-20.82 27.84,11.99 -53.55,-33.09 -63.18,-35 -172.44,-36.99 -282.13,-66.75zm-206.42 -151.66c41.9,32.56 58,49.88 109.29,77.49 -50.48,22.53 59.66,40.44 -29.8,9.62 -36.5,-12.57 1.94,14.36 -56.72,-33.09 -157.75,-42.8 -309.82,-12.31 -482.57,-59.18 -46.98,-39.03 -1.85,-12.77 -55.99,-47.93 -55.85,-36.28 -29.68,-25.89 -93.66,-40.62l33.2 -59.53 142.81 59.57c90.43,22.02 90.12,3.08 197.8,28.96 76.94,18.49 158.53,43.8 235.64,64.72zm2944.52 17659.62c-29.57,160.74 -32.27,295.24 -82.37,479.89 283.21,76.83 205.14,70.66 267.29,-190.7 28.53,-119.96 23.3,-175.18 62.01,-317.86 -129.12,-23.75 -143.16,29.08 -246.93,28.67zm-4790.18 -17012.39l-38.39 -24.77 87.12 14.08c41.92,11.37 30.66,18.32 29.38,-26.31 93.92,25.58 75.37,-4.8 106.33,87.03l-184.44 -50.03zm7967.21 16056.7c-116.29,-31.55 -30.58,0.07 -83.07,-46.45 60.21,-48.04 4.27,-26.62 92.26,-35.97l110.13 -4.79c-126.12,-67.89 -262.5,-116.61 -363.03,27.81 -74.97,107.69 5.65,87.09 58.48,110.24 88.14,38.62 21.73,22.74 104.42,70.73 -86.9,69.36 -56.09,2.76 -174.07,24.53 -0.46,115.72 122.6,155.84 182.77,156.85 192.65,3.25 315.84,-217.88 185.4,-367.88 -27.17,46.81 -45.6,83.3 -113.28,64.93zm-3818.55 1116.46c0.04,0.09 185,380.98 313.29,371.25 76.87,-5.83 60.79,-35.27 140.53,-104.63 -102.04,-117.33 -143.35,-212.32 -245.39,-329.65 -128.33,62.09 -117.31,-9.68 -208.43,63.03zm381.3 533.93c86.02,3.1 79.92,-24.25 164.04,0.39 53.9,15.79 81.63,42.35 176.15,67.99 42.88,-158.04 31.03,-137.52 -164.68,-157.2 -90.48,-9.11 -161.44,-26.94 -278.95,-58.82 16.77,43.58 71.24,110.63 103.44,147.64zm-8368.81 -12171.69c-93.19,343.48 413.13,498.44 431.19,-2.59 -116.59,-100.69 -364.11,-244.64 -431.19,2.59zm12910.55 -778.31l26.07 -184.25c-48.61,-41.98 -61.92,-30.2 -110.55,-68.33 -62.51,-49.01 -18.2,-62.27 -88.05,-81.22 -89.43,-24.27 -336.91,105.18 -236.92,323.69 95.5,208.71 379.42,120.76 409.44,10.11zm-14635.68 9429.02c105.57,235.43 242.2,478.19 382.79,704.69 35.07,68.64 87.77,167.9 134.62,235.02 36.18,51.83 42.23,48.16 77.11,106.07 46.68,77.51 19.24,72.71 102.51,117.13 31.57,197.08 946.82,1188.22 1094.35,1341.66l579.03 533.47c148.58,114.5 476.52,408.86 629.53,487l996.86 255.06c-60.06,-89.64 -371.93,-242.58 -475,-310.91 -526.79,-349.24 -1047.46,-761.92 -1488.59,-1216.1 -484.61,-498.95 -709.33,-769.05 -1096.09,-1328.91 -27.42,-39.68 -51.35,-59.72 -69.69,-97.69 -32.29,-88.96 -135.53,-231.64 -185.87,-319.49 -33.79,-58.96 -55.78,-97.7 -87.74,-156.56 -48.19,-88.75 -35.16,-86.04 -164.56,-121.15 -124.25,2.94 -84.57,5.34 -190.47,-51.68l144.8 -8.54 90.06 24.43c0.31,-78.79 -28.55,-101.22 -67.8,-168.07 -37.94,-64.58 -58.7,-112.03 -104.46,-166.68l-369.72 -878.39c-308.77,-816.91 -534.33,-1807.67 -574.94,-2680.4 -9.89,-212.52 14.17,-182.36 -82.96,-234.63l47.31 -15.93c34.9,-21.43 3.92,11.73 37.65,-32.77l-15.28 -198.18c-6.25,-402.94 36.45,-1202.16 134.4,-1563.2l-81.46 -48.95c31.23,-10.72 -22.72,-18.75 71.26,-1.65 40.27,-148.42 38.33,-218.06 67.46,-339.66 124.82,-521.27 281.19,-1090.21 485.25,-1584.34 53.27,-128.98 142.82,-235.76 41.74,-276.89 -92.42,-37.61 -33.96,13.96 -196.38,75.97 -76.42,29.17 -63.09,40.2 -109.95,29.42 -99.2,-22.8 60.36,-23.68 -27.75,-10.21 -59.93,69.39 -346.47,919.84 -391.5,1089.27 -137.59,517.64 -403.48,1899.65 -324.16,2385.54l-7.28 59.36c-71.58,280.37 96.94,1599.64 150.71,1891.99 11.12,60.43 11.8,61.94 36.16,112.14 6.67,13.75 18.56,31.9 20.46,37.98 23.64,75.42 -23.04,27.03 8.12,150.05 127.07,501.62 194.62,711.64 357.87,1207.08 42.1,127.76 284.73,738.25 348.12,797.6 9.39,76.79 -8.2,22.48 26.63,98.02 11.4,24.74 30.09,47.58 46.82,72.03zm13290.11 -10463.73c-102,375.98 546.31,340 446.7,23.3 -42.38,-134.73 -12.33,3.84 -64.47,-15.6 -57.23,-21.34 -23.93,-94.21 -9.92,-145.85 -122.33,-33.19 -308.53,-96.92 -372.31,138.15zm-11608.19 10434.96c-33.01,121.68 80.13,354.33 304.69,269.01 56.58,-21.51 80.6,-38.28 106.48,-109.62l-83.06 -46.45c88.07,21.8 50.6,20.28 117.43,7.94 14.92,-414.13 -389.7,-326.66 -445.53,-120.87zm13292.19 18.8c-89.51,329.92 334.43,442.22 423.25,114.83 72.34,-266.63 -351.75,-378.38 -423.25,-114.83zm-12499.39 937.69c-136.34,502.53 575.58,373.18 409.44,10.11 -27.15,-59.33 -114.8,-129.65 -195.39,-131.05 -68.34,-1.19 -196.95,57.9 -214.05,120.94zm32.48 -10609.89c-107.82,397.42 338.41,415.93 419.38,179.57 46.04,-134.4 -65.39,-359.63 -294.09,-289.2 -36.4,11.21 -113.01,64.37 -125.28,109.62zm11802.61 10974.76c48.32,13.11 135.29,8 168.1,-2.11 180.51,-55.59 226.98,-369.03 -24.95,-437.38 -113.01,-30.66 -231.3,37.74 -269.14,148.18 -52.41,153.02 93.96,282.62 125.99,291.31zm673.14 -9886.01c-74.1,273.14 361.77,429.61 445.53,120.87 78.43,-289.08 -368.31,-405.48 -445.53,-120.87zm-11614.23 10457.24c-67.94,250.41 365.46,415.97 451.57,98.59 74.76,-275.58 -366.31,-412.86 -451.57,-98.59zm13199.4 184.95l123.35 -14.37c-37.68,103.89 -45.73,94.72 -134.46,107.02 -43.04,-38.37 -19.28,5.15 -11.48,-42.35l22.59 -50.3zm-15366.73 -13735.41c33.99,26.2 37.29,29.04 90.59,48.5l-12.08 44.56c-105.17,-28.53 -62.41,-11.47 -96,1.24 -113.5,-34.93 -157.95,12.47 -130.91,-134.55l148.41 40.26zm-924.24 2643.09c-38.18,105.26 -133.47,244.69 -181.88,339.09 -53.68,104.69 -148.67,271.45 -179.54,376 221.06,59.97 29.32,34.59 334.15,90.66 60.19,-111.84 187.05,-336.87 222.06,-465.91l-245.04 -66.48c31.16,-35.17 24.73,-23.2 46.44,-83.06 269.48,145.06 209.99,174.43 366.26,-115.87 -102.97,-25.49 -122.36,-9.29 -362.46,-74.42zm5557.56 6489.97c-134.92,3.04 -153.27,-39.01 -265.38,-79.67l89.43 0.35c21.42,5.81 78.81,17.93 95.34,24.67 54.04,22.08 -5.96,-7.83 36.83,17.45 60.51,35.74 10.63,-10.4 43.78,37.2zm-1065.69 5514.79c-20.73,-112.4 23.01,-113.17 125.37,-109.49 -32.56,89.79 -43.34,111.94 -125.37,109.49zm191.5 -617.69c-52.03,191.78 -376.57,666.85 -454.32,881.21 78.82,42.43 127.26,82.35 232.95,111.03 41.79,-115.19 150.98,-313.08 209.99,-421.35 55.48,-101.83 182.94,-331.66 216.02,-443.63 281,101.92 292.15,245.43 376.45,-65.28 -112.58,-33.26 -276.83,-124.58 -377.23,-178.84l-382.41 -194.67c-69.09,190.5 -131.05,100.99 -63.28,184.84 19.84,24.56 195.97,113.13 241.84,126.68zm-724.96 -13900.55l98.1 150.86c233.81,-81.99 199.1,-153.99 333.09,-153.46 -0.36,88.61 51.14,138.95 92.38,210.42l344 649.36 202.03 -107.02c-48.39,-136.29 -286.18,-544.31 -326.61,-649.12 -32.9,-85.29 -82.56,-165.51 -107.52,-239.55 92.16,-20.78 71.04,-13.76 153.81,-59.87 70.14,-39.06 96.6,-44.07 167.9,-68.1 -26.53,-78.72 -35.74,-128.27 -91.34,-192.2 -141.25,47.61 -749.15,357.19 -865.83,458.66zm6135.29 -487.92l-44.56 -12.09c6.77,-187.74 -102.62,-340.5 -95.85,-528.24 -127.89,-34.7 -175.66,-26.05 -273.36,-50.25 -5.75,159.56 230.86,662.05 200.79,844.33 -22.65,137.33 -39.33,235.42 -79.72,384.32l222.76 60.44c140.87,-519.21 55.4,-372.16 384.33,-740.76 65.09,-72.93 251.78,-261.31 286.36,-320.91 -412.95,-112.03 -203.17,-42.42 -357.55,63.27l-243.2 299.9zm-3534.85 -193.7c54.23,62.36 189.07,282.17 188.75,362.11 -81.3,-2.93 -152.36,18.41 -224.67,34.72 4.23,-117.3 19.17,-275.68 35.92,-396.83zm-178.56 -311.52c-39.88,216.82 -131.26,1113.39 -103.59,1263.36 59.23,-13.35 144.33,-40.99 202.39,-40.76 32.92,-121.33 14.13,-193.59 34.01,-301.68 63.5,0.25 279.57,-54.51 354.18,-71.33l129.8 245.48c71.49,-10.94 140.34,-13.69 218.68,-31.36 -52.55,-155.9 -509.24,-981.66 -610.8,-1098.43 -72.3,16.3 -143.37,37.64 -224.66,34.71zm4834.35 15326.34c9.13,46.1 9.62,32.52 -1.9,95.15l-89.1 -24.17c59.91,-64.11 13.09,-40.98 91,-70.98zm-724.58 114.33c-65.96,243.12 -36.16,504.04 189.09,625.28 -67.82,96.57 -0.9,-19.55 -68.72,77.02 38.43,35.92 64.37,65.55 100.66,92.8 191.33,143.65 151.32,84.08 298.41,111.14 -31.8,-82.66 -131.86,-178.32 -225.01,-228.46 66.05,-113.81 84.34,-9.81 39.66,-114.98 -25.52,-60.06 -36.84,-58.19 -63.3,-134.83 -43.35,-125.59 -127.13,-398.74 30.29,-493.46 296.77,-178.58 626.82,568.09 340.27,724.92l-140.39 50.46c79.57,42.84 82.52,46.3 194.45,76.67l-24.18 89.11c404.56,-136.37 402.53,-504.03 188.02,-860.26l-23.51 -42.95c-224.91,-439.97 -748.96,-292.32 -835.75,27.55zm-4078.27 663.34c121.24,-140.4 121.17,-278.14 230.35,-320.17 -13.53,375.23 156.46,425.11 -230.35,320.17zm-505.62 365.06l245.04 66.48c110.97,-206.15 117.15,-220.92 206.07,-234.36 49.61,-7.5 59.64,-23 135.75,19.97 4.01,2.27 9.12,6.78 13.45,9.24l71.98 34.51c31.37,11.08 79.35,21.09 113.07,30.25 21.4,94.88 27.34,180.01 44.9,275.25 93.36,17.17 127.32,10.63 251.09,44.21 27.24,-148.07 -29.74,-262.89 -150.24,-327.76 142.88,-69.12 81.34,-54.26 27.81,-429.8l-65.47 -489.21 -200.49 -54.4 -512.25 780.15c-61.27,80.67 -145.06,177.18 -180.71,275.48zm5908.88 -1769.07c103.2,306.15 433.85,692.8 391.83,847.71 -32.46,119.65 -145.16,175.86 -277.15,140.05 -82.71,-22.44 -189.15,-313.39 -234.2,-392.5l-192 -416.69c-115.93,26.14 -119.66,53.34 -214.48,85.31l209.4 481.97c156.8,322.69 114.35,395.09 415.4,476.76 150.07,40.72 448.96,-119.01 479.73,-233.09 33.8,-125.4 -51.11,52.61 4.63,-108.27 66.44,-191.75 173.81,-3.7 -172.85,-608.49 -84.45,-147.32 -128.82,-241.86 -240.38,-370.14 -99.3,48.04 -88.2,69.84 -169.92,97.39zm-3286.4 -14332.38c-80.11,-29.06 -80.35,-29.47 -64.93,-113.28l89.11 24.18c26.56,-144.41 -4.22,-324.32 31.77,-469.7 -104.03,-25.75 -158.85,-3.85 -257.13,-21.92 -30.24,111.46 -23.5,482.14 -20.83,595.12l-14.04 591.22c90.43,22.39 154.14,12.97 234.85,15.89 48.67,-264.62 -53.93,-304.19 104.63,-473.84 90.8,104.4 224.52,369.03 269.92,503.71 69.48,2.51 185.02,8.67 257.13,21.92 -54.96,-163.04 -311.85,-609.35 -338.99,-689.87 39.09,-72.6 124.14,-157.34 177.87,-214.82 -117.06,-31.76 -115.93,-5.04 -115.53,-103.09l178.22 48.35c74.78,-80.02 164.39,-153.44 206.17,-231.05 -280.77,-51.65 -292.09,-31.94 -445.18,142.29 -122.27,139.15 -173.69,142.38 -271.22,332 -1.57,3.04 -4.57,9.45 -5.96,12.19l-15.85 30.71zm2924.59 1032.61c-22.64,83.45 -5.06,182.92 22.74,250.34 55.17,133.77 343.27,349.35 606.3,190.68 139.89,-84.39 197.21,-214.81 293.84,-373.49 306.71,-503.63 334.76,-441.2 56.23,-591.13 -81.37,94.22 -196.42,328.27 -266.61,453.82 -137.93,246.67 -168.3,384.83 -353.83,334.5 -340.62,-92.41 102.78,-597.86 243.64,-986.2 -83.45,-30.27 -149.5,-80.76 -232.95,-111.04 -66.42,123.38 -122.28,257.62 -186.27,397.08 -58.15,126.74 -139.21,273.69 -183.09,435.44zm-2958.37 14694.95c13.59,-73.86 -0.65,-416.04 -12.78,-481.79 -71.06,-2.56 -137.32,4 -212.57,-9.84 -22.07,89.15 -10.4,208.6 -11.64,288.85l-0.95 903.54c79.9,14.7 198.43,11.59 263.17,-0.35 9.55,-264.95 -67.84,-319.19 82.36,-479.9l354.88 455.02c113.58,4.1 177.91,-20.68 291.49,-16.58 -28.62,-74.35 -190.76,-234.06 -251.36,-307.42 -82.36,-99.7 -155.88,-217.95 -251.51,-307.34 97.37,-180.87 273.39,-371.22 347.43,-575.38 -238.05,43.92 -202.53,-50.67 -350.06,176.96l-215.42 313.41c-3.15,4.35 -7.84,10.27 -10.73,14.1l-22.31 26.71zm2446.02 -14833.95c-217.74,-59.08 -257.47,-208.86 -150.53,-457.27 93.61,-217.45 139.43,-358.89 356.01,-300.13 67.41,18.29 91.95,44.77 123.16,100.22 33.76,60.01 34.46,88.58 21.07,155.59 -38.59,193.1 -179.59,547.74 -349.71,501.59zm-351.07 -645.32c-73.19,269.79 -194.73,736.4 246.09,856 577.69,156.73 1023.72,-989.82 387.14,-1162.52 -209.11,-56.73 -243.16,-62.8 -425.71,45.02 -154.4,91.21 -106.9,120.75 -175.28,219.41 -36.64,52.87 -4.68,-59.5 -32.24,42.09zm-4958.29 -412.47c-25.9,140.78 114.56,314.83 113.98,461.41 -51.36,40.99 -324.69,137.27 -400.62,154.39 -35.14,-104.23 -148.75,-320.71 -148.34,-422.9 -119.23,-4.3 -139.23,46.21 -259.03,73.22l340.55 820.66c32.39,69.44 102.49,214.79 102.22,280.03 67.3,0.26 169.26,-45.99 214.47,-85.31 0.47,-118.09 -159,-355.41 -158.53,-473.5 63.66,-21.46 122.97,-38.91 188.62,-64.77 80.63,-31.77 119.9,-47.94 205.95,-67.34 38.01,112.73 140.07,361.67 136.26,467.45 69.75,0.27 169.16,-36.25 230.7,-56.99l-335.54 -1143.34c-61.54,20.75 -160.95,57.28 -230.7,56.99zm-748.17 15892.48c209.51,75.99 244.11,158.05 297.53,-38.86 -65.04,-35.01 -99.06,-51.31 -137.8,-109.13 110.54,29.99 138.81,66.16 187.05,-1.88 1.3,-1.83 83.62,-204.56 85.97,-211.04 150.92,40.94 242.93,89.82 417.21,137.1l-177.52 477.99c118.92,43.14 54.72,38.77 261.27,94.81l336.54 -1152.33 -222.76 -60.44 -143.14 439.48c-169.16,-45.89 -236.25,-88.01 -394.93,-131.05 45.51,-167.73 123.73,-279.78 171.47,-455.73l-215.04 -86.65c-64.87,236.18 -408.94,905.1 -465.84,1097.73zm2569.53 -15832.82l278.28 411.17c142.76,204.14 40.77,85.94 267.7,147.51 62.73,17.02 38.63,20.83 54.74,62.69 -111.93,-30.37 -116.22,-28.86 -206.54,-32.11l74.73 145.28c74.26,-1.24 165.16,-5.08 225.05,-16.13 -22.24,-120.53 -3.42,-761.66 -21.3,-834.33 -24.42,-99.23 -142.07,-141.62 -144.83,-142.74 -22.98,-9.32 -63.03,-17.82 -88.25,-24.66l12.09 -44.56c109.34,29.67 148.38,51.2 210.67,104.99 16.62,-90.33 -0.73,-144.52 15.89,-234.85 -96.6,-17.76 -168.55,3.76 -263.17,0.35l23.38 701.46c14.57,112.9 12.75,-14.56 22.22,100.13 -79.57,-42.83 -82.52,-46.3 -194.44,-76.67l117.42 7.95c0.39,-95.9 -139.68,-256 -198.76,-337.57 -30.75,-42.47 -38.45,-62.1 -72.92,-108.7 -281.83,-381.05 -147.47,-212.63 -431.67,-222.87 -2.58,71.34 22.68,200.61 35.25,280.79 16.8,107.16 22.15,190.62 38.83,297.55 16.54,106.05 80.17,501.66 65.12,583.48 101.79,25.2 164.71,10.78 240.89,-6.4l-61.21 -642.14c-6.5,-63.06 -1.33,-50.17 -24.8,-98.67l25.62 -20.95zm407.72 15349.08c12.25,66.42 -19.99,660.15 -37.46,755.15 -135.62,-155.94 -310.44,-777.79 -403.92,-803.15l-161.98 -20.03 -174.56 1172.36c112.94,30.64 127.41,10.65 251.08,44.2 30.75,-113.33 34.5,-257.81 49.97,-386.08 12.19,-101.08 34.15,-270.38 38.09,-379.26 49.54,56.96 65.87,116.17 97.87,188.46l283.78 608.65c70.43,2.54 203.66,10.63 263.17,-0.35 6.97,-193.5 13.59,-399.62 17.43,-593.17 1.9,-95.82 3.79,-189.62 5.69,-285.44 1.79,-89.98 -4.8,-217.79 11.74,-307.73 -74.87,13.82 -151.49,-10.1 -240.89,6.39zm-5058.79 134.25c-29.53,54.88 -38.01,59.97 -74.76,99.3 35.16,31.16 23.2,24.74 83.06,46.45l-18.13 66.83c-67.46,-19.92 -78.49,-32.09 -127.62,-58.54 19.03,-52.46 17.49,-33.29 28.13,-51.33l25.8 -41.91c48.69,-75.88 -23.78,-36.59 83.51,-60.79zm-2420.02 -12853.71c-25.01,68.97 -88.11,159.3 -127.26,204.63 19.52,16.86 39.06,26.58 44.73,30.79l54.56 43.98c-117.81,-31.97 -125.36,-29.87 -179.54,47.78 -30.21,43.29 -79.37,131.88 -99.52,187.43 129.88,23.89 136.69,13.74 208.43,-63.03 55.86,30.5 35.95,33.67 83.06,46.45 71.78,19.47 118.97,-9.76 171.98,-91.55 43.08,-66.46 102.22,-167.29 153.53,-226.7 -214.51,-58.2 -202.76,-56.47 -309.98,-179.76zm10716.67 4222.83c119.47,32.41 177.4,12.92 293.74,151.44 -240.68,-59.57 -254.55,22.34 -293.74,-151.44zm-11962.31 2924.94c-25.82,65.83 -44.49,83.59 -113.28,64.92 -62.73,-17.02 -38.63,-20.83 -54.74,-62.68 238.67,86.56 -7.01,1.72 168.02,-2.24zm-131.26 -1279.25l-12.09 44.56 -222.76 -60.44c71.4,-56.98 114.03,-16.89 234.85,15.89zm6967.24 8610.62l18.13 -66.83c54,1.94 55.92,-3.37 117.43,7.94 -34.17,94.2 -36.12,83.3 -135.56,58.89zm3176.53 192.14c90.66,24.6 110.28,67.7 131.76,131.41 -99.88,-29.5 -110.84,-57.18 -188.4,-98.94 16.51,-16.81 26.59,-40.62 56.64,-32.47zm1702.2 -7860.95c-20.09,7.16 -13.35,9.25 -49.2,13.49 -39.73,4.7 -13.12,6.07 -56.27,2.04l-368.38 -120.17c122.25,-59.14 211.23,33.39 473.85,104.64zm-117.78 -271.1l222.76 60.43 -6.05 22.27c-47.49,-12.88 -89.57,-21.91 -136.6,-32.84 -104.64,-24.33 -97.24,23.06 -80.12,-49.86zm-35.06 -487.84c112.2,-54.29 278.72,-20.05 402.87,13.64l-12.09 44.55c-307.92,-83.54 -93.05,22.59 -390.78,-58.19zm533.93 -381.3c-144.28,-39.14 -148.12,-25.48 -243.73,-105.35 -197.97,-165.38 -169.29,1.71 -143.26,-143.14 321.63,87.26 168.66,41.37 215.41,93.75 99.2,111.14 172.14,15.5 171.58,154.74zm-1013.27 2236.28c137.06,25.21 1098.77,-2.68 1214.66,18.63 34.47,-139.29 15.45,-1637.1 20.74,-1874.3 2.66,-119.05 -0.17,-207.87 0.8,-320.26 0.75,-88.47 3.64,-235.93 -10.7,-313.67l-1202.92 -326.36 -8.69 701.03c-5.23,203.89 25.01,66.17 -0.18,338.73l-4.98 1056.33c-2.73,114.09 -1.5,230.31 -1.35,358.2 0.1,95.56 12.6,253.03 -7.38,361.67zm-5012.97 -8056.5c25.6,-47.57 31.17,-46.55 52.49,-105.34l89.11 24.18c-46.61,86.59 -41.16,99.63 -141.59,81.16zm-8.3 -145.75l4.85 8.44c-0.32,-0.55 -7.66,-6.82 -4.85,-8.44zm1238.14 -596.82c108.45,3.91 60.38,-9.13 155.93,42.31l-12.09 44.55c-116.26,-21.38 -44.81,-2 -155.93,-42.31l12.08 -44.55zm-2779.36 10773.46c52.92,-91.18 131.97,-57.94 161.97,20.03 -74.52,13.75 -68.24,5.4 -161.97,-20.03zm-922.32 -919.87c-0.27,69.26 -1.94,31.87 25.82,79.25 113.73,194.03 624.83,858.38 810.36,984.06 95.77,64.87 67.01,67.54 124.99,154.1 230.52,-77.71 51.94,-39.75 301.68,34.02 -71.96,57.42 -135.11,11.18 -257.13,-21.93 98.63,147.19 404.56,374.22 543.15,478.78 1379.83,1040.92 3318.02,1587.8 5010.06,1266.97 809.77,-153.55 943.09,-190.55 1702.83,-508.13 68.18,-28.5 71.11,-31.8 132.56,-64.11 114.35,-60.12 248.94,-92.63 386.35,-212.12 -118.61,-32.18 -130.05,-13.72 -228.81,-38.16l18.13 -66.83c129.25,35.07 167.75,60.88 261.27,94.8l706.21 -474.58c219.13,-171.59 460.19,-361.67 652.8,-567.76 -24.69,-6.69 -65.43,-15.34 -87.63,-25.01l-62.25 -39.56c87.86,16.16 93.77,1.52 206.53,32.12l315.53 -368.47c132.99,-163.33 425.15,-513.36 523.18,-695.46 -713.53,-25.71 -226.28,-17.57 -1167.7,883.8 -597.65,572.23 -1370.24,1090.16 -2147.33,1373.68 -652.32,238 -1192.49,356.12 -1898.26,396.92 -269.65,15.58 -535.2,8.83 -834.62,-12 -565.14,-39.32 -1336.3,-228.36 -1860.86,-441.88 -807.61,-328.73 -1427.97,-764.86 -2039.61,-1351.75l-611.01 -703.25c-236.29,-324.77 -168.37,-121.65 -526.25,-187.48zm8992.16 -12340.5c133.66,71.95 46.01,26.28 153.72,34.53 113.68,8.71 62.37,35.1 22.6,108.96 -91.59,-33.22 -149.1,-72.79 -176.32,-143.5zm-2494.95 -676.88c95.34,3.43 118.71,-15.63 234.85,15.88l-132.16 38.37c-89.6,13.09 -74.39,19.31 -102.7,-54.25zm7729.09 6066.97c177.64,48.19 156,57.71 277.5,123.12 -122.88,38.08 -248.82,-39.31 -295.63,-56.29l18.13 -66.83zm-7766.21 5617.88l245.04 66.48c-46.96,22.72 -50.79,34.05 -123.46,14.33l-22.28 -6.04c-72.68,-19.72 -70.25,-31.43 -99.3,-74.77zm-1234.89 -1530.82c147.96,27.21 273.63,50.32 451.57,98.59 -91,32.43 -326.71,-8.09 -396.99,-53.34l-54.58 -45.25zm-404.27 -1066.32c-59.58,-16.16 -57.16,-50.03 -70.98,-91l252.11 38.6c-39.06,35.96 -119.07,69.24 -181.14,52.4zm-889.16 -336.9c189.46,51.4 182.95,85.85 316.01,157.49 73.6,-136.73 112.65,-327.1 161.28,-506.31 9.55,19.74 5.9,6.8 20.73,44.54 7.16,18.18 10.36,27.38 16.41,47.03l483.35 1604.17 -1052.68 1.41 352.78 -1124.01c-104.72,-28.41 -110.04,-40.68 -167.37,-92.18l-130.51 -132.13zm1330.18 121.73l334.15 90.65 -6.04 22.27 -334.15 -90.65 6.04 -22.27zm96.7 -356.43c194.86,52.87 142.21,30.78 166.12,92.9 -133.75,-4.82 -94.12,-25.54 -245.04,-66.48 36.28,-30.47 15.28,-43.69 78.92,-26.43zm-184.6 -289.24c51.33,-88.45 50.1,-58.15 174.06,-24.52 -51.33,88.45 -50.1,58.15 -174.06,24.52zm-1096.05 -632.17c-40.77,58.07 25.66,31.64 -85.14,48.36 -104.71,15.8 -198.2,-8.17 -232.76,-110.7 125.56,-57.73 160.25,150.41 317.9,62.34zm-233.65 -637.38l-36.26 133.66c121.02,43.89 52.53,83.42 156.11,103.05 93.6,17.74 88.07,-33.61 222.59,-0.31 -21.68,119.24 -32.18,34.49 26.43,78.91 57.6,-27.87 98.12,-60.38 147.65,-103.44 30.55,26.39 308.34,153.81 362.6,169.88 134.02,39.69 31.95,-38.92 433.3,69.98 -51.35,-152.36 -113.22,-298.87 -164.57,-451.22l-1147.84 -0.5zm-5578.83 4872.02c41.44,-71.4 60.74,-70.7 157.83,-52.85l-157.83 52.85zm212.72 -1401.16c305.76,82.95 287.1,6.39 328.1,112.93 -73.29,33.7 -199.31,-54.08 -334.14,-90.66l6.04 -22.27zm312.37 -1063.22c30.1,-17.25 74.91,58.28 21.68,18.31 -0.45,-0.34 -69.11,8.88 -21.68,-18.31zm-384.74 -80.46c38.34,-105.71 51.42,-79.17 163.87,-75.12 -36.12,99.59 -56.8,101.62 -163.87,75.12zm301.68 34.01l18.13 -66.83 111.38 30.22c-70.87,75.83 -31.14,87.03 -129.51,36.61zm1797.99 248.64c-85.17,-23.11 -9.96,4.64 -60.79,-40.41 85.76,-68.44 123.86,-38.14 263.17,-0.35l-108.89 16.52c-111.69,20.83 15.65,53.84 -93.49,24.23zm-1908.53 -1163.52c412.85,112.01 226.33,91.26 478.8,233.49 102.27,57.61 91.46,10.8 124.91,97.72 -314.4,-9.42 -282.32,-168.93 -573.14,-179.41 35.48,-61.13 18.86,-33.65 68.73,-77.02 -76.11,-27.6 -64.2,-22.4 -99.29,-74.78zm693.66 -529.28c249.6,61.78 580.63,-57.72 1056.83,71.47 513.06,139.19 684.58,1333.47 -210.09,1372.94 -143.26,6.32 -299.78,2.38 -431.11,2.73 -116.15,0.32 -335.24,9.62 -444.09,-19.91l15.93 -611.13c-5.05,-105.95 -3.36,-102.94 -124.22,-135.74l12.08 -44.55c61.51,11.31 63.43,5.99 117.43,7.94 -12.5,-67.71 -12.97,-560.22 7.24,-643.77zm1275.44 59.04c95.63,-102.32 48.9,-91.72 161.6,-55.86 116.67,37.12 134.67,17.61 214.85,-9.42 144.09,134.66 98.42,86.82 103.44,147.64 -181.9,-49.35 -322.51,-39.66 -479.89,-82.35zm655.51 -300.49c-157.54,-5.68 -120.51,-43.75 -261.28,-94.8 59.29,-47.31 73.16,-34.79 190.21,40.81l58.13 42.58c2.94,2.34 9.07,7.16 12.95,11.4zm-1539.32 -585.03c-114.29,-33.76 -115.25,-75.16 -200.68,-96.36l-483.32 -13.9c-177.64,9.21 -76.05,119.3 -261.45,69 -135.02,-36.63 116.53,-62.84 -321.37,-68.39 -84.6,-1.07 -291.52,-7.18 -354.86,4.49 -14.95,414.72 -1.93,840.76 -8.34,1246.39l-7.3 3747.81c109.31,20.1 194.38,-10.59 292.73,-14.41 97.17,-3.79 203.45,20.03 313.27,21.4l446.07 -9.46c60.78,3.47 100.05,5.63 162.6,21.11l5.84 -1696.45c270.19,9.74 542.28,2.21 811.94,5.27 141.29,1.58 259.36,-13.32 397.21,-29.07 164.09,-18.74 223.71,-37.91 368.77,-78.67 401.74,-112.89 940.27,-452.29 1086.75,-992.21 134.45,-495.61 73.43,-1129.91 -173.35,-1388.3l-46.48 -41.62c-47.65,-62.18 27.55,-37.72 -96.16,-176.01 -76,-84.96 -130.22,-136.62 -226.64,-208.82 -398.27,-298.2 -759.11,-385.97 -1256.52,-405.11 -106.41,-4.09 -188.54,3.3 -282.31,0.06 -21.34,-0.73 -140.97,-4.17 -149.45,-1.31 -98.39,33.15 -20.86,18.48 -22.44,33.15l5.48 71.41zm10144.38 3158.76l222.76 60.44 -18.13 66.82c-64.13,-17.4 -65.21,-14.48 -118.01,-45.23 -56.73,-33.03 -60.02,-42.33 -86.62,-82.03zm27.97 -279.41l-175.97 119.67c55.72,-95.99 40.41,-10.19 80.82,-121.57l-111.38 -30.21c97.51,-84.81 97.57,-26.54 206.53,32.11zm2683 512.66l-384.74 -80.46c19.98,-28.45 -20.8,-90.68 154.89,2.87 80.77,43.01 135.57,52.02 229.85,77.6zm473.5 -158.53l-178.21 -48.34c82.09,-71.4 138.93,-53.71 178.21,48.34zm-476.09 -272.67c155.25,-28.64 133.14,45.05 81.16,141.61 -93.68,-50.43 -95.37,-38.79 -81.16,-141.61zm-2642.95 -836.6c179.89,48.8 285.38,101.34 439.48,143.14 -93.4,108.17 -50.66,138.15 -194.09,186.5 -133.23,-71.72 -58.62,-87.65 -271.46,-145.39l255.73 29.51 13.49 -52.14c-77.71,-41.83 -154.23,-89.68 -255.23,-117.08l12.08 -44.55zm3124.39 560.65l66.83 18.13 -36.26 133.66c-55.98,-64.37 -56.37,-45.13 -30.57,-151.79zm-585.23 -134.86c-87.02,-25.7 -53.91,-8.08 -105.34,-52.49 51.71,-96.07 61.03,-48.65 98.95,-188.4 271.7,52.13 285.5,28.78 467.8,126.92 -83.19,143.34 -262.81,-13.81 -368.51,-52.15 -75.94,66.04 -87.08,62.85 -92.89,166.12zm-69.78 -712.49l133.66 36.26c-33.66,92.81 -42.81,109.81 -125.37,109.49 22.13,-89.43 12.09,-85.27 -8.3,-145.75zm685.73 -411.86c103.38,129.53 -48.76,127.43 192.54,171.81 -93.12,74.32 -153.71,-17.78 -429.29,-92.55l124.15 -13.15c83.79,-6.35 67.25,12.02 112.6,-66.12zm-1022.47 -109.99c56.44,167.46 122.75,283.27 159.17,473.14 79.8,416.01 -33.63,441.89 129.57,490.1 -42.52,117.21 -62.26,53.17 -74.77,99.29 -37.77,139.22 3.15,290.49 -25.73,447.42 51.77,15.29 120.51,47.46 161.83,76.55 69.85,49.2 79.1,65.41 63.19,151.9l-245.04 -66.48c-45.85,168.99 -35.38,295.98 -170.15,523.67 -84.36,142.5 -182.84,256.14 -310.67,344.15 -201.45,138.72 -760.22,165.05 -961.26,128.07 7.88,-218.75 -21.81,-876.32 14.83,-1024.36l-273.24 -85c-88.81,-12.82 -149.37,-29.65 -239.12,-54 24.62,-42.42 115.83,-142.48 160.36,-153.63 126.07,-31.58 11.81,72.5 -14.61,145.33 144.21,39.13 227.47,37.8 340.19,68.39 18.25,-73.74 21.96,-252.27 11.73,-307.72 -155.68,-5.62 -241.52,-28.91 -378.7,-102.74l32.66 -8.66c208.32,-32.77 48.21,43.01 343.79,-56.63l9.59 -400.55c-14.26,-121.6 -140.62,-113.32 -378.8,-177.93 135.53,-42 261.92,52.7 339.21,32.66 64.94,-16.83 39.4,-184.46 37.05,-304.77l1.03 -677.84c243.88,-44.99 848.08,0.84 1090.76,240.15 230.47,227.27 222.87,100.96 586.01,190.84 29.05,86.18 49.88,46.8 30.57,151.79l-133.66 -36.26 0.61 -60.62c0.08,-2.6 0.4,-10.05 0.47,-12.38 0.07,-2.15 0.36,-9.7 0.42,-11.39 0.06,-1.6 1.03,-7.22 0.4,-10.76 -146.25,49.29 -110.22,41.84 -307.72,-11.74zm-2335.22 -824.87c31.2,29.16 51.79,47.14 89.98,80.11l102.57 91.7c-257.9,-69.97 -175.98,-65.99 -192.54,-171.81zm749.45 322.91l-155.94 -42.31c86.16,-74.92 189.57,-132.72 321.72,-127.96 -72.21,62.8 -108.99,64.77 -165.78,170.27zm764.98 -175.11c96.01,34.82 84.72,43.31 81.17,141.59l-111.38 -30.21 30.21 -111.38zm1032.66 160.58c24.73,64.26 28.45,71.51 115.53,103.09 -41.73,33.3 -124.56,69.33 -186.16,69.08 -21.57,-95.7 -24.71,-85.23 9.85,-212.58 93.35,17.17 127.3,10.63 251.07,44.2l-12.08 44.56c-73.12,-21.6 -129.99,-79.97 -178.21,-48.35zm-8530.76 12226.51c32.06,-118.16 36.72,-131.27 82.71,-216.72l44.56 12.08c-52.01,191.71 -7.89,137.94 -127.27,204.63zm-1292.37 -613.7c145.72,39.54 218.39,104.06 344.33,141.25 -141.44,151.34 -86.84,0.36 -473.84,-104.63 35.25,-28.14 69.81,-52.82 129.52,-36.62zm2199.31 620.6l4.85 8.45c-0.32,-0.56 -7.66,-6.84 -4.85,-8.45zm-2731.7 -597.62l-87.6 -137.91c107.16,-0.06 189.14,-1.96 308.12,30.32 -38.61,33.58 -169.39,90.36 -220.52,107.59zm3478.91 752.51l4.85 8.44c-0.32,-0.55 -7.66,-6.83 -4.85,-8.44zm-413.06 -64.24c-121.91,27.49 -190.98,48.6 -244.69,196.69l-178.21 -48.34c-137.97,-37.43 46.76,-121.64 -114.41,-197.79 -12.67,-5.99 -477.85,-79.8 -272.2,-208.38 95.17,-59.5 196.09,56.65 454.99,65.98l-54.85 141.94c-30.97,40.05 -33.26,-21.24 -16.59,37.21 9.63,33.77 132.41,125.04 193.01,-98.33 187.12,50.77 408.85,65.66 479.29,84.67 84.44,22.8 49.9,32.56 150.5,62.27l-115.67 30.19c-30.26,14.64 -74.9,86.14 -205.77,21.27 -94.09,-46.64 2.6,10.36 -75.39,-87.37zm-4858.49 -1485.53c114.66,31.11 92.03,41.56 172.17,70.62 -90.09,71.89 -115.32,-7.37 -251.09,-44.2 36.28,-30.46 15.28,-43.68 78.91,-26.42zm5275.35 1359.46l30.22 -111.38c67.76,63.33 65.33,13.5 64.92,113.29 -50.49,9.98 -28.78,8.85 -95.15,-1.9zm-6113.91 -1706.54l-550.86 -173.37c144.07,-125.29 295.22,0.14 457.06,76.88 151.82,71.99 121.52,45.04 267.88,71.96 -53.87,26.06 -104.77,43.33 -174.07,24.52zm2585.96 605.91l4.84 8.44c-0.31,-0.54 -7.66,-6.83 -4.84,-8.44zm-1158.37 -314.26c241.88,27.69 211.06,7.88 210.68,104.99 82.1,20.32 118.01,9.85 197.17,15.79 291.12,21.84 411.82,77.68 689.73,153.08 -45.43,78.28 -58.82,44.35 -109.13,137.8 -151.28,-44.68 -299.98,-153.13 -694.72,-260.22 -172.22,-46.73 -146.03,69.01 -293.74,-151.44zm-1176.5 -247.44l18.13 -66.82c112.66,30.56 185.46,77.74 272.51,80.04 162.37,4.3 31.23,42.02 343.84,70.3l93.81 24.08c99.54,53.5 193.37,70.71 314.55,103.59 -47.57,23.01 -35.69,20.79 -99.84,22.72 -245.96,7.41 -654.43,-155.61 -943,-233.91zm5860.58 1494.32l4.84 8.44c-0.32,-0.55 -7.66,-6.82 -4.84,-8.44zm-7950.76 -2252.71c6.7,-24.69 15.35,-65.43 25.02,-87.64l39.56 -62.25c-6.3,210.39 -43.59,124.22 -64.58,149.9zm9028.02 2353.65l89.14 -64.75c75.29,57.24 225.4,368.52 286.27,466.31l-115.34 70.98c-59.42,-97.49 -235.76,-383.34 -260.07,-472.54zm-656.25 -154.13c45.96,-79.18 54.15,-56.58 157.83,-52.85 -13.47,36.89 0.99,21.72 -24.9,55.55 -29.04,37.95 -19.53,27.27 -44.66,30.04l-88.28 -32.74zm-149.9 -64.58c-86.13,-0.35 -60.13,-14.14 -91,70.97 -72.56,-42.11 -11.97,-14.6 -68.47,-69.41l-47.06 -33.68c21.32,-58.79 26.89,-57.76 52.49,-105.33l13.91 6.73c45.97,12.61 -47.04,8.15 25.8,5.94 31.31,-0.95 48.45,-15.1 83.76,-27.01 -28.35,78.18 -46.05,67.29 -7.2,116.96l37.77 34.83zm561.75 148.02c81.31,-58.47 350.9,-233.87 442.57,-229.96l52.09 75.48c-54.88,88.08 -137.46,108.39 -218.78,154.99 -75.92,43.5 -137.23,87.96 -221.75,117.72l-54.13 -118.24zm1232.09 27.74c63.31,-29.11 259.36,62.1 293.74,151.43 -80.35,-2.9 -135.13,6.77 -229.94,-56.31 -103.04,-68.56 -49.37,-60.02 -63.8,-95.12zm-9649.8 -2689.76l42.31 -155.93c53.12,61.08 119.59,182.17 -42.31,155.93zm1322.59 502.32c-362.49,-98.35 -452.16,-328.61 -751.34,-227.76 -47.53,-123.48 -116.7,-64.57 -164.22,-188.05 -58.52,20.85 -28.68,-3.85 -62.69,54.74 -209.4,-75.96 -197.17,-154.8 -168.37,-260.92 164.44,44.61 187.68,65.76 330,17.78 -1.37,343.66 311.78,204.16 415.31,232.25 53.55,14.53 55.69,53.86 93.25,97.06 37.24,-48.33 19.94,-13.9 24.18,-89.11 161.69,87.04 229.98,89.15 423.29,112.64 145.87,17.72 115.6,33.56 267.28,74.71 -65.35,52.15 -121.01,21.72 -211.66,57.39 -59.38,23.38 -164.08,127.66 -195.02,119.26zm-1563.84 -759.1l111.38 30.22 -18.13 66.83c-144.88,-42.79 -73.45,-8.02 -93.25,-97.05zm380.26 -255.58l289.59 78.57c-56.22,96.86 -49.24,63.02 -121.66,17.49 -79.63,-50.06 -54.33,-41.32 -173.97,-73.78l6.05 -22.28zm12706.3 2442.77c-74.47,23.07 -145.78,20.35 -206.53,-32.12 97.51,-84.8 97.58,-26.54 206.53,32.12zm2743.24 -1384.28c70.05,-74.95 6.78,-57.4 84.7,-45.18 50.91,7.98 61.14,41.13 77.27,65.21 -69.68,-2.51 -74.03,3.83 -161.97,-20.03zm-676.93 -590.23c38.49,-18.63 43.23,-29.15 103.28,-19.29 67.88,11.14 69.79,22.53 103.25,51.41 41.71,-44.63 53.99,-47.61 80.82,-121.57 131.91,113.9 208.13,-39.2 336.04,-4.49 141.94,38.5 75.73,88.31 45.43,138.41 -131.31,217.13 -298.93,55.89 -668.82,-44.46zm-16987.36 -5087.01l-245.04 -66.48c50.22,-138.45 82.05,-88.88 188.55,-36.76 94.51,46.24 93.33,-45.59 56.49,103.25zm-605.96 -499.22c76.89,-61.37 385.46,8.91 491.97,37.81 -59.18,51.47 -103.25,60.33 -202.4,40.74 -88.74,-17.53 -199.67,-54.15 -289.58,-78.55zm-861.53 -879.47c88.7,-42.92 152.83,-17.17 267.39,34.7 154.34,69.9 171.75,47.95 301.6,71.83 -71.04,61.78 -138.26,67.61 -253.19,15.24 -130.54,-59.47 -158.18,-79.02 -315.8,-121.78zm19871.85 5523.38c191.14,-165.87 79.67,-316.74 -27.58,-493.51 -49.34,-81.31 -63.22,-71.11 -49.23,-169.09 118.27,-59.54 102.59,-37.1 172.69,79.04 48.22,79.91 78.75,128.25 115.8,216.14 87.88,208.49 20.01,370.55 -148.12,483.44l-63.56 -116.02zm275.07 -860.41c101.41,-94.09 181.43,128.51 221.25,198.11 129.65,226.57 152.46,190.44 85.19,299.5 -121.55,26.78 -150.35,-107.1 -209.1,-209.65 -35.35,-61.72 -167.21,-223.12 -97.33,-287.96zm157.37 -269.25l53.09 100.88c-46.77,64.09 -224.61,155.8 -317.06,207.13 -68.8,38.2 -41.25,31.64 -121,46.62l-60.53 -107.7 445.51 -246.93zm432.04 555.75c-62.29,-131.6 -157.54,-243.67 -203.57,-390.2 -50.29,-160.07 35.72,-396.17 194.96,-391.03 56.16,149.37 31.42,59.17 -39.24,187.14 -112.54,203.86 104.42,332.79 167.31,539.61l-119.46 54.48zm-20617.56 -6974.02c39,-18.87 40.45,-22.72 97.95,-26.05 137.84,-7.97 254.3,47.72 343.43,74.05 -101.79,81.23 -267.76,-0.89 -441.39,-48zm635.83 124.67l12.08 -44.55c93.94,25.48 199.47,75.28 243.75,86.57 158.42,40.4 34.28,-71.55 185.54,5.97l-12.08 44.55c-97.11,-24.03 -96.57,-4.91 -205.99,-31.18 -72.83,-17.49 -150.28,-41.55 -223.29,-61.37zm20642.88 3161.01c69.65,18.9 139.26,45.17 188.4,98.94l-184.25 -26.07c-85.17,-23.11 -9.96,4.64 -60.78,-40.41 16.51,-16.81 26.58,-40.62 56.63,-32.47zm-20238.16 -6327.7c176.57,6.36 253.46,44.84 451.57,98.59l-30.21 111.38 -421.35 -209.97zm380.75 -1403.41c-2.81,1.62 5.69,5.31 4.85,8.45l-0.01 0c-0.31,-0.55 -2.02,-10.06 -4.84,-8.45zm996.64 -1375.48c77.17,60.15 227.28,371.43 290.13,472.67l-120.11 62.69c-56.63,-92.64 -232.97,-378.49 -260.5,-472.66l90.48 -62.69zm-331.66 -3.02c70.31,-50.56 140.95,-84.87 218.83,-132.35 77.45,-47.23 129.62,-101.29 223.71,-98.12l52.13 76c-48.59,77.97 -346.16,239.47 -440.53,272.71l-54.14 -118.24zm19103.78 4852.43c100.84,36.58 139.02,70.76 119.67,175.97 -107.19,-38.88 -88.41,-83.24 -119.67,-175.97zm-18227.13 -4528.61c-51.32,-92.64 -188.69,-288.73 -219.09,-399.59 -34.54,-126 52.97,-489.36 226.85,-355.63 17.86,142.01 -172.73,151.81 -68.78,377.82 47.48,103.24 152.24,209.32 163.93,323.7 -51.22,34.12 -49.24,32.99 -102.91,53.7zm18289.11 3947.52c220.11,59.72 201.31,100.6 390.82,152.55 304.12,83.36 65.2,214.66 -303.14,4.14 -76.71,-43.84 -142.91,-80.09 -217.18,-120.07 36.85,-17.84 75.29,-51.32 129.51,-36.61zm1078.41 -448.82c-25.66,23.46 -4.09,2.67 -29.78,46.94 -139.47,240.26 -156.14,-35.5 -401.41,-44.34 0.41,-103.06 -21.53,-41.76 -24.46,-121.61 -3.84,-105 -9.25,-59.01 78.85,-78.87 -27.38,110.63 -28.13,109.32 81.16,141.6 51.44,-95.56 38.39,-47.48 42.31,-155.93 81.67,43.96 40.96,32.92 133.66,36.26 -67.82,96.57 -0.91,-19.55 -68.73,77.02l188.4 98.94zm-1201.03 -421.5c146.78,39.82 224.54,48.61 341.74,69.47 177.76,31.63 177.04,84.11 298.23,128.08 -29.53,108.85 10.42,218.07 -98.95,188.4 -92.08,-24.99 -133.26,-105.4 -199.48,-149.22 -157.97,-104.51 -49.28,70.09 -124.82,-154.01 -102.83,18.97 -162.63,-18.31 -216.72,-82.71zm898.65 -138.85c67.46,19.92 78.48,32.09 127.61,58.54 -95.64,76.33 -109.01,23.96 -127.61,-58.54zm-638.78 -819.03c62.73,17.02 38.64,20.83 54.74,62.68l-178.21 -48.35c46.97,-22.72 50.79,-34.05 123.47,-14.33zm-1265.45 -1682.62c118.35,32.11 130.8,51.55 216.72,82.71l-53.73 6.99c-220.74,11.88 -152.6,-43.01 -162.99,-89.7zm-13225.26 -4496.84l-12.08 44.55 -155.93 -42.31c67.88,-54.16 50.58,-34.1 168.02,-2.24zm1103.28 -11.58l-111.38 -30.22c54.61,-94.1 111.82,-78.58 111.38,30.22zm184.25 26.07l36.26 -133.66c143.8,52.16 39.01,108.28 -36.26,133.66zm9760.84 2456.8c-40.55,-11 -2.78,0.75 -38.51,-34.36 76.94,-61.4 156.51,-29.29 263.17,-0.35 62.73,17.02 38.63,20.83 54.74,62.69 -117.14,-29 -166.77,2.59 -279.4,-27.97zm-9874.82 -2918.21c-9.62,-31.08 -10.1,-2.32 -5.31,-53.39 3.07,-32.79 10.74,-54.8 19.29,-86.32 40.22,50.4 33.67,81.39 -13.99,139.71zm11320.19 2879.85l167.84 -5.65 -30.04 114.77c-99.63,-29.43 -110.63,-38.52 -137.8,-109.13zm-3250.45 -977.52l30.21 -111.37 81.46 48.93 -16.53 64.34c-37.28,-6.78 -69.26,-18.88 -95.15,-1.9zm-7721.96 -2214.55c105.7,28.67 154.14,68.6 232.95,111.03 -37.81,152.77 51.39,217.26 -82.71,216.72 29.4,-108.37 21.71,-110.87 3.8,-190.3 -92.38,-17 -61.49,7.23 -206.53,-32.12 -85.17,-23.11 -9.96,4.64 -60.78,-40.4 25.82,-65.84 44.49,-83.6 113.28,-64.93zm2452.29 569.64l229.36 33.91 -12.63 48.8c-71.26,-13.11 -85.18,0.81 -161.98,-20.03 -62.73,-17.02 -38.63,-20.83 -54.74,-62.69zm5603.45 1472.4c104.78,-50.69 178.44,0.58 368.51,52.15 -78.98,63.03 -152.55,6.44 -368.51,-52.15zm-955.98 -355.02c30.1,-17.26 74.9,58.28 21.67,18.31 -0.45,-0.34 -69.11,8.88 -21.67,-18.31zm-2195.17 -547.73c-60.17,-16.32 -58.54,-27.3 -105.34,-52.49l105.01 -13.72c282.64,19.16 346.98,7.75 346.56,112.32 -65.42,12.06 -253.19,-20.87 -346.23,-46.11zm-447.78 -288.89l120.24 194.45c-137.02,-31.6 -166.62,-62.03 -261.84,-113.29 49.62,-24.01 93.42,-55.21 141.6,-81.16zm1867.07 434.8c77.75,89.39 47.4,89.72 6.39,240.89 -64.51,-80.84 -42.05,-109.45 -6.39,-240.89zm2582.16 796.2l178.21 48.35 -12.09 44.55 -178.21 -48.35 12.08 -44.55zm-1858.78 -289.04c-127.65,-68.72 -272.74,-97.91 -439.49,-143.15 11.32,-61.51 6,-63.44 7.94,-117.43 213.03,-39.3 264.79,100.21 391,58.49 91.76,-30.33 19.52,-9.84 63.76,-55.14 29.98,-30.7 -41.87,-39.45 64.37,-42.14 117.76,-2.97 -96.85,31.27 197.51,41.88 -27.94,151.92 6.89,182.26 95.5,265.07 117.65,0.47 78,-70.53 213.09,6.91 120.89,69.29 -4.34,-2.83 119.75,122.12 66.94,67.4 -48.88,-46.75 25.1,23.24l24.9 23.35c-180.31,-48.92 1.43,25.01 -290.36,-77.62 -122.72,-43.17 -191.61,-77.05 -327.33,-113.88 21.89,-88.38 9.98,-183.19 -85.67,-180.09 -94.67,3.08 -37.29,21.91 -43.23,100.05 -3.11,41.05 -6.01,48.46 -16.83,88.33zm-5194.93 -1805.74c100.02,-92.8 214.36,173.27 305.08,338.64 49.27,89.79 58.81,65.82 1.35,158.96 -121.55,26.79 -150.35,-107.1 -209.1,-209.64 -35.36,-61.73 -167.22,-223.12 -97.34,-287.96zm7561.57 1897.74c19.92,-67.46 32.09,-78.49 58.53,-127.62l66.83 18.13c-2.36,65.36 -2.89,53.1 20.37,101.19l-145.74 8.3zm-7404.2 -2166.99l53.09 100.88c-46.78,64.09 -224.61,155.81 -317.06,207.14 -68.81,38.2 -41.25,31.63 -121.02,46.62l-60.52 -107.71 445.5 -246.93zm1273.7 168.96l12.08 -44.56c85.57,43.86 23.86,21.47 133.77,32.66 108.46,11.04 71.61,-31.25 105.23,56.1 -97.51,-24.14 -127.57,-10.69 -251.09,-44.2zm3649.17 918.28c187.14,50.77 221.59,18.17 378.7,102.75l-53.79 4.61c-128.74,-0.19 -246.62,-14.13 -324.92,-107.35zm659.65 -227.61l18.13 -66.82c54,1.94 55.92,-3.38 117.43,7.94 -41.95,72.28 -42.58,75.81 -135.56,58.89z"/>
 </g>
</svg>
